<svg width="100" height="100" viewBox="0 0 100 100" fill="none" xmlns="http://www.w3.org/2000/svg">
<path d="M3.125 12.5V89.0625H96.875V12.5H3.125ZM90.625 82.8125H9.375V18.75H90.625V82.8125Z" fill="#111111"/>
<path d="M17.1875 26.5625H34.375V32.8125H17.1875V26.5625ZM17.1875 40.625H34.375V46.875H17.1875V40.625ZM17.1875 54.6875H34.375V60.9375H17.1875V54.6875ZM17.1875 68.75H34.375V75H17.1875V68.75ZM56.25 26.5625H82.8125V32.8125H56.25V26.5625ZM56.25 40.625H82.8125V46.875H56.25V40.625ZM56.25 54.6875H82.8125V60.9375H56.25V54.6875ZM56.25 68.75H82.8125V75H56.25V68.75ZM42.1875 26.5625H48.4375V32.8125H42.1875V26.5625ZM42.1875 40.625H48.4375V46.875H42.1875V40.625ZM42.1875 54.6875H48.4375V60.9375H42.1875V54.6875ZM42.1875 68.75H48.4375V75H42.1875V68.75Z" fill="#111111"/>
</svg>
