<svg width="300" height="218" viewBox="0 0 300 218" fill="none" xmlns="http://www.w3.org/2000/svg">
<path d="M128.571 203.876C184.805 203.876 230.391 158.237 230.391 101.938C230.391 45.6392 184.805 0 128.571 0C72.3379 0 26.7516 45.6392 26.7516 101.938C26.7516 158.237 72.3379 203.876 128.571 203.876Z" fill="#F2F2F2"/>
<path d="M40.4004 218C62.7129 218 80.8007 215.103 80.8007 211.528C80.8007 207.954 62.7129 205.057 40.4004 205.057C18.0879 205.057 0 207.954 0 211.528C0 215.103 18.0879 218 40.4004 218Z" fill="#F2F2F2"/>
<path d="M237.489 211.422C272.013 211.422 300 206.938 300 201.408C300 195.878 272.013 191.395 237.489 191.395C202.965 191.395 174.977 195.878 174.977 201.408C174.977 206.938 202.965 211.422 237.489 211.422Z" fill="#F2F2F2"/>
<path d="M223.6 105.159C223.6 105.159 224.132 106.935 221.116 108.533C218.1 110.132 217.213 116.17 220.761 117.946C224.309 119.722 225.374 122.031 223.6 123.63C221.826 125.228 218.633 129.491 222.89 130.556C227.148 131.622 227.68 133.753 226.438 134.641C225.196 135.529 229.277 133.043 229.277 133.043C229.277 133.043 229.986 137.305 233.712 136.24C237.437 135.174 247.904 114.927 242.582 112.085C237.26 109.244 223.6 105.159 223.6 105.159Z" fill="#2F2E41"/>
<path d="M230.03 122.308C230.03 122.308 231.87 128.757 228.649 129.217C226.651 129.529 224.757 130.319 223.129 131.52L229.109 139.35H240.151L247.051 132.441C247.051 132.441 237.85 125.533 239.691 121.387C241.531 117.242 230.03 122.308 230.03 122.308Z" fill="#FFB9B9"/>
<path opacity="0.1" d="M230.03 122.308C230.03 122.308 231.87 128.757 228.649 129.217C226.651 129.529 224.757 130.319 223.129 131.52L229.109 139.35H240.151L247.051 132.441C247.051 132.441 237.85 125.533 239.691 121.387C241.531 117.242 230.03 122.308 230.03 122.308Z" fill="black"/>
<path d="M232.79 202.449L243.371 206.134L250.732 206.594L250.272 200.146L235.09 195.651L232.79 202.449Z" fill="#FFB9B9"/>
<path d="M246.361 201.067C246.361 201.067 246.361 207.516 247.281 207.516C248.201 207.516 260.623 206.134 264.303 207.516C267.983 208.897 273.504 203.831 270.744 201.067C267.983 198.304 263.481 194.159 260.672 195.08C257.862 196.001 246.361 198.304 246.361 198.304V201.067Z" fill="#575A89"/>
<path d="M212.548 195.08C212.548 195.08 207.027 206.134 210.708 207.055C214.388 207.976 218.529 206.594 218.989 206.134C219.449 205.673 225.889 203.831 226.809 204.752C227.729 205.673 227.729 201.067 227.729 201.067L212.548 195.08Z" fill="#575A89"/>
<path d="M217.148 179.881C217.148 179.881 208.408 191.856 214.848 195.08C221.289 198.304 252.112 198.304 254.412 195.08C256.712 191.856 257.632 181.723 254.412 180.802C251.192 179.881 217.148 179.881 217.148 179.881Z" fill="#2F2E41"/>
<path opacity="0.2" d="M217.148 179.881C217.148 179.881 208.408 191.856 214.848 195.08C221.289 198.304 252.112 198.304 254.412 195.08C256.712 191.856 257.632 181.723 254.412 180.802C251.192 179.881 217.148 179.881 217.148 179.881Z" fill="black"/>
<path d="M233.71 125.532C239.554 125.532 244.291 120.79 244.291 114.939C244.291 109.089 239.554 104.346 233.71 104.346C227.866 104.346 223.129 109.089 223.129 114.939C223.129 120.79 227.866 125.532 233.71 125.532Z" fill="#FFB9B9"/>
<path d="M217.148 131.52L226.349 129.678C226.349 129.678 228.649 137.047 236.01 135.665C243.371 134.284 245.211 129.678 245.211 129.678C245.211 129.678 250.732 131.981 251.192 131.981C251.652 131.981 257.632 134.284 257.632 135.665C257.632 137.047 250.732 150.864 250.732 150.864L251.652 175.736L217.608 174.814L219.909 150.404L217.148 131.52Z" fill="#F9A826"/>
<path d="M212.088 143.495C212.088 143.495 209.328 167.906 211.168 169.748C213.008 171.59 220.369 176.657 220.369 176.657V171.13L216.688 164.221L220.369 148.101L212.088 143.495Z" fill="#FFB9B9"/>
<path d="M259.702 142.804C259.702 142.804 258.092 167.906 258.092 168.827C258.092 169.748 253.952 172.972 252.572 172.972C251.192 172.972 250.272 170.669 250.272 170.669L253.492 166.985L251.192 148.101L259.702 142.804Z" fill="#FFB9B9"/>
<path d="M255.332 178.038C255.332 178.038 276.034 166.524 276.494 178.038C276.954 189.553 265.913 194.159 265.913 194.159C265.913 194.159 237.39 202.721 236.24 199.592C235.09 196.462 232.79 191.395 234.63 190.935C236.47 190.474 238.77 189.553 239.691 190.474C240.611 191.395 252.112 183.565 252.112 183.565L255.332 178.038Z" fill="#2F2E41"/>
<path opacity="0.2" d="M264.993 176.657C264.993 176.657 260.853 178.499 259.472 179.881C258.092 181.263 252.112 183.565 252.112 183.565" stroke="black" stroke-width="2" stroke-miterlimit="10"/>
<path d="M219.909 132.441L217.148 131.52C217.148 131.52 207.027 142.113 210.248 144.877C213.468 147.64 215.308 148.561 216.228 149.483C217.148 150.404 221.749 150.864 221.749 150.864L219.909 132.441Z" fill="#F9A826"/>
<path d="M253.492 134.744L257.632 135.665C257.632 135.665 260.853 142.574 261.773 143.495C262.693 144.416 260.393 143.956 259.012 145.798C257.632 147.64 256.252 150.864 253.492 150.864C250.732 150.864 247.051 146.259 247.051 146.259L253.492 134.744Z" fill="#F9A826"/>
<path d="M218.068 182.184C218.068 182.184 200.587 169.748 194.606 178.96C188.626 188.171 220.369 200.607 224.969 202.449C229.57 204.291 233.71 206.134 233.71 206.134C233.71 206.134 237.85 196.001 237.85 194.159C237.85 192.316 234.63 192.316 233.71 192.316C232.79 192.316 228.649 191.395 227.729 190.014C226.809 188.632 218.068 182.184 218.068 182.184Z" fill="#2F2E41"/>
<path opacity="0.2" d="M208.407 178.96C208.407 178.96 213.008 182.644 217.148 183.565C221.289 184.487 222.669 186.789 222.669 186.789" stroke="black" stroke-width="2" stroke-miterlimit="10"/>
<path d="M214.895 161.642L215.262 181.143C215.275 181.787 215.541 182.401 216.002 182.849C216.464 183.298 217.084 183.545 217.728 183.538L253.976 183.13C254.594 183.124 255.186 182.882 255.633 182.455C256.079 182.028 256.348 181.447 256.383 180.83L257.483 161.737C257.503 161.405 257.454 161.072 257.34 160.76C257.226 160.448 257.05 160.162 256.822 159.92C256.594 159.679 256.32 159.486 256.015 159.354C255.71 159.223 255.381 159.155 255.049 159.155H217.333C217.009 159.155 216.688 159.219 216.389 159.345C216.09 159.471 215.82 159.655 215.593 159.886C215.366 160.118 215.187 160.392 215.067 160.694C214.947 160.995 214.889 161.318 214.895 161.642V161.642Z" fill="#575A89"/>
<path d="M234.275 101.632C234.275 101.632 234.865 103.599 231.524 105.37C228.183 107.141 227.2 113.831 231.131 115.798C235.061 117.766 236.24 120.323 234.275 122.094C232.31 123.865 228.773 128.587 233.489 129.768C238.206 130.948 238.795 133.309 237.42 134.293C236.044 135.277 240.564 132.522 240.564 132.522C240.564 132.522 241.35 137.244 245.477 136.064C249.604 134.883 253.722 113.424 249.121 107.897C244.844 102.758 234.275 101.632 234.275 101.632Z" fill="#2F2E41"/>
<path d="M233.02 99.6068C233.021 96.7242 241.635 98.7955 245.328 102.82C247.885 105.607 251.77 109.8 248.515 112.756C245.26 115.711 254.094 119.586 256.463 120.761C258.833 121.935 263.511 125.528 259.287 127.938C255.063 130.348 255.131 132.78 256.721 133.356C258.31 133.932 253.216 132.5 253.216 132.5C253.216 132.5 253.731 137.259 249.438 137.236C245.146 137.214 232.833 113.598 235.774 107.034C238.509 100.931 233.02 99.6068 233.02 99.6068Z" fill="#2F2E41"/>
<path d="M234.886 98.9751C223.367 98.2807 222.211 106.962 222.211 106.962C222.29 111.985 230.259 109.537 232.472 110.286C235.142 108.363 240.289 104.725 243.97 102.128C241.297 100.244 238.149 99.1516 234.886 98.9751Z" fill="#2F2E41"/>
<path d="M231.604 154.369C231.604 154.369 221.271 105.887 156.598 70.7173" stroke="#3F3D56" stroke-width="2" stroke-miterlimit="10"/>
<path d="M159.262 69.6598L159.392 70.1913L156.776 70.8265L157.6 73.3924L157.08 73.5594L156.076 70.434L159.262 69.6598Z" fill="#3F3D56"/>
<path d="M18.6915 203.907C18.6915 210.047 15.0455 212.191 10.5476 212.191C10.4434 212.191 10.3394 212.19 10.2355 212.188C10.0271 212.183 9.82069 212.173 9.61675 212.159C5.55745 211.872 2.40369 209.617 2.40369 203.907C2.40369 197.997 9.94722 190.539 10.5139 189.987L10.5149 189.986C10.5367 189.965 10.5476 189.955 10.5476 189.955C10.5476 189.955 18.6915 197.766 18.6915 203.907Z" fill="#F9A826"/>
<path d="M10.2509 211.252L13.2295 207.085L10.2434 211.709L10.2355 212.188C10.0271 212.183 9.82069 212.173 9.61676 212.159L9.9378 206.016L9.93531 205.968L9.94078 205.959L9.97104 205.379L6.97754 200.743L9.98046 204.944L9.98742 205.067L10.23 200.425L7.66725 195.635L10.2613 199.611L10.5139 189.987L10.5149 189.954V189.986L10.4727 197.575L13.0241 194.566L10.4623 198.229L10.3948 202.384L12.777 198.396L10.3849 202.996L10.3472 205.306L13.8056 199.755L10.3343 206.113L10.2509 211.252Z" fill="#3F3D56"/>
<path d="M57.5359 202.316L59.278 201.02C59.278 201.02 60.4311 207.469 59.1444 208.435C57.8576 209.401 53.0322 211.012 53.0322 212.944C53.0322 214.876 42.0948 217.453 41.7731 214.554C41.4514 211.656 42.7381 210.045 42.7381 210.045C42.7381 210.045 47.8852 204.892 48.5286 203.926C49.172 202.96 50.7804 201.028 50.7804 201.028L57.5359 202.316Z" fill="#2F2E41"/>
<path d="M31.8007 122.122C31.8007 122.122 31.8489 122.405 31.9325 122.924C32.0098 123.384 32.1159 124.035 32.2446 124.837C33.5957 133.091 37.5364 157.391 37.2694 158.193C36.9477 159.159 34.6959 162.702 37.2694 163.668C37.5171 163.761 37.7841 164.064 38.0704 164.541C38.623 165.567 39.0786 166.644 39.4312 167.755C40.9656 172.212 42.6063 179.346 43.5553 184.287C43.9702 186.457 44.2533 188.203 44.3369 189.118C44.366 189.329 44.3693 189.543 44.3466 189.755C44.0249 191.044 46.2767 195.552 47.2418 196.841C48.2069 198.129 49.8153 199.417 49.4937 200.705C49.172 201.994 57.5359 205.536 58.501 203.282C59.4661 201.028 59.4661 199.739 59.7878 199.095C60.1095 198.451 60.4311 193.942 58.8227 193.298C57.2142 192.654 58.1793 181.382 56.5709 179.127C56.0337 178.377 55.2133 175.836 54.3544 172.779C54.0166 171.581 53.6756 170.306 53.3411 169.027C51.9835 163.787 50.7804 158.515 50.7804 158.515L51.1021 120.833L33.4091 118.579L32.9556 119.581L32.0516 121.568L31.8007 122.122Z" fill="#2F2E41"/>
<path d="M30.8356 183.958C30.8356 183.958 28.2621 181.382 26.9753 183.958C25.6885 186.535 24.4018 196.519 22.1499 198.773C19.8981 201.028 17.0029 212.3 20.2198 212.944C23.4367 213.588 26.9753 211.978 27.297 210.045C27.6187 208.113 34.3742 198.129 34.3742 197.163C34.3742 196.197 29.8705 192.654 29.8705 192.654L30.8356 183.958Z" fill="#2F2E41"/>
<path d="M70.4035 104.408C70.4035 104.408 66.2215 142.09 65.2565 145.632C64.2914 149.175 59.1443 162.702 57.5359 164.956C55.9274 167.211 45.6333 185.568 44.3466 186.535C43.0598 187.501 40.4863 190.077 40.4863 190.077C40.4863 190.077 35.6609 194.908 35.0175 195.874C34.3741 196.841 28.9054 193.942 28.5837 192.01C28.262 190.077 28.9054 186.857 29.2271 185.568C29.5488 184.28 28.5837 182.348 29.5488 181.382C30.5139 180.415 35.3392 175.584 35.3392 173.33C35.3392 171.075 43.7032 157.871 46.9201 154.972C50.137 152.074 49.4936 147.243 49.4936 147.243V127.597L31.8006 122.122C31.8006 122.122 32.7657 106.663 35.0175 106.663C37.2694 106.663 66.8649 101.51 70.4035 104.408Z" fill="#2F2E41"/>
<path d="M44.3466 50.6234C50.2095 50.6234 54.9624 45.8651 54.9624 39.9953C54.9624 34.1256 50.2095 29.3672 44.3466 29.3672C38.4836 29.3672 33.7308 34.1256 33.7308 39.9953C33.7308 45.8651 38.4836 50.6234 44.3466 50.6234Z" fill="#9F616A"/>
<path d="M47.8852 48.369C47.8852 48.369 49.1719 53.2 50.7804 54.4882C52.3889 55.7765 46.5984 61.2516 46.5984 61.2516L35.6609 61.8957L33.7308 55.7765C33.7308 55.7765 37.2694 48.6911 36.3043 44.1821C35.3392 39.6732 47.8852 48.369 47.8852 48.369Z" fill="#9F616A"/>
<path d="M52.3889 53.844C52.3889 53.844 49.4937 54.1661 48.8503 55.1323C48.2069 56.0985 43.7032 58.997 40.1646 58.3529C36.626 57.7088 34.3742 56.7426 33.7308 57.0646C33.0874 57.3867 31.8007 64.1501 31.8007 64.1501L35.3393 74.4561L34.6959 102.798L33.7308 110.527C33.7308 110.527 31.8007 107.951 39.5212 109.561C47.2418 111.171 57.2142 108.273 60.4312 107.951C63.6481 107.629 69.1168 106.663 69.4385 104.73C69.7602 102.798 68.4734 95.7124 68.4734 95.7124L63.3264 74.1341L60.1095 62.5397L52.3889 53.844Z" fill="#F9A826"/>
<path d="M49.346 52.3905C49.346 52.3905 52.0672 50.9455 53.0322 52.2338C53.9973 53.5221 66.2216 55.4544 66.2216 56.4206C66.2216 57.3868 68.7951 83.4741 68.1517 85.7285C67.5083 87.983 69.4385 90.5595 69.4385 90.5595L71.6903 100.221C71.6903 100.221 77.8024 118.579 75.2289 119.223C72.6554 119.867 70.4035 119.223 69.4385 119.223C68.4734 119.223 68.7951 106.985 66.2216 103.764C63.648 100.543 60.1094 92.4919 59.4661 90.8816C58.8227 89.2712 50.7804 67.0488 51.1021 64.4723C51.4238 61.8957 49.346 52.3905 49.346 52.3905Z" fill="#D0CDE1"/>
<path d="M35.9826 53.844C35.9826 53.844 33.4091 53.844 33.0874 54.4881C32.7657 55.1323 29.5488 59.3191 28.262 60.2853C26.9753 61.2515 22.4716 65.4383 22.4716 66.4045C22.4716 67.3707 31.8007 74.4561 31.8007 74.4561C31.8007 74.4561 35.6609 93.4579 33.7308 99.8992C31.8007 106.34 28.9054 121.8 30.1922 122.766C31.479 123.732 34.3742 124.054 34.3742 122.766C34.3742 121.478 36.3043 107.629 37.9128 104.73C39.5212 101.832 44.3466 83.4739 42.4165 78.3209C40.4863 73.1679 35.9826 53.844 35.9826 53.844Z" fill="#D0CDE1"/>
<path d="M78.4458 85.7284C78.4458 85.7284 78.7675 95.7124 75.2289 100.865C71.6903 106.018 69.4385 111.816 69.4385 111.816C69.4385 111.816 63.648 110.205 62.683 108.273C61.7179 106.341 55.6058 107.951 55.6058 107.307C55.6058 106.663 63.0047 103.442 63.648 102.798C64.2914 102.154 66.5433 102.154 67.83 100.865C69.1168 99.5772 69.4385 96.6786 69.4385 96.6786L70.7252 88.3049L78.4458 85.7284Z" fill="#9F616A"/>
<path d="M51.6582 33.4423C52.4749 33.368 53.3172 33.2863 54.039 32.8966C55.6562 32.0234 56.0851 29.5367 54.8539 28.1711C54.5145 27.8237 54.1348 27.518 53.723 27.2607L51.2777 25.5944C50.1962 24.8574 49.0892 24.1084 47.8278 23.7609C46.6869 23.4467 45.4819 23.479 44.3009 23.5525C42.0083 23.6952 39.7015 23.9898 37.5452 24.7823C35.3888 25.5748 33.3773 26.9006 32.0713 28.7924C30.0009 31.7916 29.9725 35.8365 31.1128 39.2989C32.2531 42.7613 34.4192 45.7763 36.5535 48.7302L37.6609 43.3204C37.7596 42.8386 37.8871 42.3105 38.2874 42.0253C39.2823 41.3166 40.4992 42.7718 41.7203 42.7624C42.5048 42.7563 43.1635 42.1103 43.4608 41.3834C43.7581 40.6565 43.7777 39.8515 43.8465 39.069C43.9922 37.4117 44.5708 35.1057 46.1385 34.1917C47.5993 33.34 50.0162 33.5916 51.6582 33.4423Z" fill="#2F2E41"/>
<path opacity="0.1" d="M51.0627 122.382C51.0627 122.382 49.9762 153.845 49.3328 154.811C48.6894 155.777 49.3328 122.283 49.3328 122.283L51.0627 122.382Z" fill="black"/>
<path d="M63.6481 56.4205H66.2216C66.2216 56.4205 77.1591 71.2355 75.8723 72.2017C74.5856 73.1679 75.8723 75.7444 75.8723 75.7444L78.4459 80.5754C78.4459 80.5754 81.6628 83.474 80.6977 84.1181C79.7326 84.7622 78.4459 87.3387 78.4459 87.3387C78.4459 87.3387 72.012 86.3725 70.0819 90.2373L65.9096 84.964L63.6481 56.4205Z" fill="#D0CDE1"/>
<path d="M64.5576 61.1858L55.7268 64.8367L62.5224 81.3123L71.3533 77.6615L64.5576 61.1858Z" fill="#2F2E41"/>
<path d="M63.5226 70.8489C64.498 70.4456 64.9888 69.3914 64.6188 68.4943C64.2487 67.5972 63.158 67.1969 62.1826 67.6002C61.2072 68.0034 60.7164 69.0576 61.0864 69.9547C61.4565 70.8518 62.5472 71.2521 63.5226 70.8489Z" fill="#F9A826"/>
<path d="M57.2142 82.1857C57.2142 82.1857 34.0525 101.51 30.1922 95.3904C26.3319 89.2711 34.3741 84.1181 34.3741 84.1181C34.3741 84.1181 41.4514 84.4402 49.4936 79.2871L57.5359 75.7444C57.5359 75.7444 64.8779 65.2503 67.3798 69.2464C69.8817 73.2424 63.1091 80.1973 57.2142 82.1857Z" fill="#9F616A"/>
<path d="M26.0102 65.1163L22.4716 66.4046V76.0665L21.1848 77.9989C21.1848 77.9989 21.5065 81.8637 22.4716 82.8299C23.4367 83.7961 25.3668 83.474 24.7234 85.7285C24.3367 87.1983 24.2276 88.7275 24.4017 90.2374C24.4017 90.2374 30.1922 97.6448 30.5138 96.6787C30.8355 95.7125 35.3392 83.7961 35.9826 83.7961C36.626 83.7961 29.5488 65.1163 29.5488 65.1163H26.0102Z" fill="#D0CDE1"/>
<path d="M113.263 58.5096C113.263 58.5096 93.2009 55.7618 78.8735 64.1678" stroke="#3F3D56" stroke-width="2" stroke-miterlimit="10"/>
<path d="M79.3562 61.3429L79.8773 61.508L79.0627 64.0766L81.6816 64.7022L81.5542 65.2343L78.365 64.4715L79.3562 61.3429Z" fill="#3F3D56"/>
<path d="M126.59 69.2832H129.51C129.451 70.2402 129.188 71.0898 128.719 71.832C128.257 72.5742 127.609 73.1536 126.775 73.5703C125.949 73.987 124.952 74.1953 123.787 74.1953C122.876 74.1953 122.059 74.0391 121.336 73.7266C120.613 73.4076 119.995 72.9518 119.48 72.3594C118.973 71.7669 118.585 71.0508 118.318 70.2109C118.051 69.3711 117.918 68.4303 117.918 67.3887V66.4023C117.918 65.3607 118.055 64.4199 118.328 63.5801C118.608 62.7337 119.005 62.0143 119.52 61.4219C120.04 60.8294 120.662 60.3737 121.385 60.0547C122.107 59.7357 122.915 59.5762 123.807 59.5762C124.992 59.5762 125.991 59.791 126.805 60.2207C127.625 60.6504 128.26 61.2428 128.709 61.998C129.165 62.7533 129.438 63.6126 129.529 64.5762H126.6C126.567 64.0033 126.453 63.5182 126.258 63.1211C126.062 62.7174 125.766 62.4147 125.369 62.2129C124.979 62.0046 124.458 61.9004 123.807 61.9004C123.318 61.9004 122.892 61.9915 122.527 62.1738C122.163 62.3561 121.857 62.6328 121.609 63.0039C121.362 63.375 121.176 63.8438 121.053 64.4102C120.936 64.9701 120.877 65.6276 120.877 66.3828V67.3887C120.877 68.1243 120.932 68.7721 121.043 69.332C121.154 69.8854 121.323 70.3542 121.551 70.7383C121.785 71.1159 122.085 71.4023 122.449 71.5977C122.82 71.7865 123.266 71.8809 123.787 71.8809C124.399 71.8809 124.904 71.7832 125.301 71.5879C125.698 71.3926 126.001 71.1029 126.209 70.7188C126.424 70.3346 126.551 69.8561 126.59 69.2832ZM140.975 71.7148V74H133.406V71.7148H140.975ZM134.363 59.7812V74H131.434V59.7812H134.363ZM139.988 65.5723V67.7988H133.406V65.5723H139.988ZM140.965 59.7812V62.0762H133.406V59.7812H140.965ZM146.111 71.7441L148.943 59.7812H150.525L150.887 61.7734L147.869 74H146.17L146.111 71.7441ZM144.656 59.7812L147 71.7441L146.805 74H144.91L141.756 59.7812H144.656ZM153.377 71.6953L155.691 59.7812H158.592L155.447 74H153.553L153.377 71.6953ZM151.414 59.7812L154.266 71.793L154.188 74H152.488L149.451 61.7637L149.842 59.7812H151.414ZM165.535 62.2129L161.668 74H158.553L163.836 59.7812H165.818L165.535 62.2129ZM168.748 74L164.871 62.2129L164.559 59.7812H166.561L171.873 74H168.748ZM168.572 68.707V71.002H161.062V68.707H168.572Z" fill="black"/>
</svg>
