<svg width="100" height="100" viewBox="0 0 100 100" fill="none" xmlns="http://www.w3.org/2000/svg">
<path d="M87.5 20.8333C87.5 16.2375 83.7625 12.5 79.1667 12.5H20.8333C16.2375 12.5 12.5 16.2375 12.5 20.8333V79.1667C12.5 83.7625 16.2375 87.5 20.8333 87.5H79.1667C83.7625 87.5 87.5 83.7625 87.5 79.1667V20.8333ZM20.8333 79.1667V20.8333H79.1667L79.175 79.1667H20.8333Z" fill="#111111"/>
<path d="M29.1667 29.1667H37.4917V37.5H29.1667V29.1667ZM45.8334 29.1667H70.8334V37.5H45.8334V29.1667ZM29.1667 45.8333H37.4917V54.1667H29.1667V45.8333ZM45.8334 45.8333H70.8334V54.1667H45.8334V45.8333ZM29.1667 62.5H37.4917V70.8333H29.1667V62.5ZM45.8334 62.5H70.8334V70.8333H45.8334V62.5Z" fill="#111111"/>
</svg>
