<svg width="100" height="100" viewBox="0 0 100 100" fill="none" xmlns="http://www.w3.org/2000/svg">
<path d="M91.6667 8.33331H8.33341C7.22835 8.33331 6.16854 8.7723 5.38714 9.5537C4.60573 10.3351 4.16675 11.3949 4.16675 12.5V45.8333C4.16675 46.9384 4.60573 47.9982 5.38714 48.7796C6.16854 49.561 7.22835 50 8.33341 50H20.8334V87.5C20.8334 88.6051 21.2724 89.6649 22.0538 90.4463C22.8352 91.2277 23.895 91.6667 25.0001 91.6667H75.0001C76.1051 91.6667 77.165 91.2277 77.9464 90.4463C78.7278 89.6649 79.1667 88.6051 79.1667 87.5V50H91.6667C92.7718 50 93.8316 49.561 94.613 48.7796C95.3944 47.9982 95.8334 46.9384 95.8334 45.8333V12.5C95.8334 11.3949 95.3944 10.3351 94.613 9.5537C93.8316 8.7723 92.7718 8.33331 91.6667 8.33331V8.33331ZM29.1667 83.3333V75C31.3769 75 33.4965 75.878 35.0593 77.4408C36.6221 79.0036 37.5001 81.1232 37.5001 83.3333H29.1667ZM70.8334 83.3333H62.5001C62.5001 81.1232 63.3781 79.0036 64.9409 77.4408C66.5037 75.878 68.6233 75 70.8334 75V83.3333ZM70.8334 66.6667C66.4131 66.6667 62.1739 68.4226 59.0483 71.5482C55.9227 74.6738 54.1667 78.913 54.1667 83.3333H45.8334C45.8334 78.913 44.0775 74.6738 40.9519 71.5482C37.8263 68.4226 33.587 66.6667 29.1667 66.6667V33.3333H70.8334V66.6667ZM87.5001 41.6666H79.1667V29.1666C79.1667 28.0616 78.7278 27.0018 77.9464 26.2204C77.165 25.439 76.1051 25 75.0001 25H25.0001C23.895 25 22.8352 25.439 22.0538 26.2204C21.2724 27.0018 20.8334 28.0616 20.8334 29.1666V41.6666H12.5001V16.6666H87.5001V41.6666ZM50.0001 62.5C52.4723 62.5 54.8891 61.7669 56.9447 60.3934C59.0003 59.0198 60.6025 57.0676 61.5486 54.7835C62.4947 52.4994 62.7422 49.9861 62.2599 47.5614C61.7776 45.1366 60.5871 42.9093 58.8389 41.1611C57.0908 39.413 54.8635 38.2225 52.4387 37.7402C50.0139 37.2578 47.5006 37.5054 45.2165 38.4515C42.9325 39.3976 40.9802 40.9997 39.6067 43.0554C38.2332 45.111 37.5001 47.5277 37.5001 50C37.5001 53.3152 38.817 56.4946 41.1612 58.8388C43.5054 61.183 46.6849 62.5 50.0001 62.5ZM50.0001 45.8333C50.8242 45.8333 51.6298 46.0777 52.315 46.5355C53.0002 46.9934 53.5342 47.6441 53.8496 48.4055C54.1649 49.1668 54.2475 50.0046 54.0867 50.8129C53.9259 51.6211 53.5291 52.3635 52.9464 52.9463C52.3636 53.529 51.6212 53.9258 50.813 54.0866C50.0047 54.2474 49.1669 54.1648 48.4056 53.8495C47.6442 53.5341 46.9935 53.0001 46.5356 52.3149C46.0778 51.6297 45.8334 50.8241 45.8334 50C45.8334 48.8949 46.2724 47.8351 47.0538 47.0537C47.8352 46.2723 48.895 45.8333 50.0001 45.8333V45.8333Z" fill="#111111"/>
</svg>
