<svg width="227" height="183" viewBox="0 0 227 183" fill="none" xmlns="http://www.w3.org/2000/svg">
<g clip-path="url(#clip0_35334_3954)">
<path d="M129.318 161.896C127.748 159.698 125.623 158.09 122.952 157.488C120.623 156.963 118.227 157.053 115.859 157.071L85.919 157.302C83.3548 157.322 80.8963 159.543 81.0154 162.205C81.1336 164.845 83.1705 167.129 85.919 167.108C94.6895 167.04 103.46 166.973 112.23 166.905C114.298 166.889 116.367 166.852 118.435 166.859C118.899 166.86 119.362 166.885 119.825 166.89C119.938 166.891 120.019 166.89 120.076 166.888C120.091 166.892 120.103 166.896 120.121 166.901C120.363 166.968 120.612 167.014 120.855 167.077C120.77 167.079 121.013 167.231 121.135 167.282C121.152 167.315 121.188 167.374 121.247 167.465C121.331 167.621 121.577 168.096 121.588 168.081C121.958 169.018 122.264 169.98 122.503 170.959C123.073 173.119 123.198 173.57 123.28 175.596C123.384 178.156 125.461 180.621 128.184 180.499C130.752 180.384 133.199 178.341 133.087 175.596C132.9 170.971 132.088 165.775 129.318 161.896Z" fill="#E6E6E6"/>
<path d="M87.6789 172.96C87.1166 169.553 86.565 166.143 85.9917 162.737C85.41 159.282 84.2219 156.119 81.5331 153.851C80.8146 153.245 80.0697 152.68 79.3216 152.116C79.0585 151.918 78.7959 151.719 78.536 151.517C78.5204 151.505 78.5105 151.497 78.497 151.486C78.4685 151.462 78.4342 151.433 78.3881 151.394C77.2674 150.445 76.1845 149.455 75.153 148.402C74.237 147.467 73.3611 146.492 72.5251 145.477C72.3162 145.223 72.11 144.968 71.9064 144.71C71.8714 144.665 71.6829 144.422 71.5587 144.263C71.4431 144.103 71.232 143.816 71.1965 143.766C70.9587 143.43 70.7252 143.09 70.4959 142.748C68.934 140.408 67.5816 137.935 66.4544 135.358C66.3426 135.102 66.2334 134.845 66.1269 134.587C66.0983 134.508 66.0614 134.406 66.0123 134.271C65.7851 133.647 65.5584 133.023 65.3507 132.391C64.9094 131.048 64.53 129.686 64.2125 128.304C64.0555 127.622 63.9142 126.936 63.7885 126.246C63.7237 125.892 63.6631 125.536 63.6067 125.18C63.5974 125.121 63.5424 124.737 63.5099 124.52C63.486 124.302 63.4414 123.916 63.4354 123.856C63.3995 123.498 63.3676 123.138 63.3398 122.779C63.2771 121.97 63.2347 121.16 63.2126 120.348C63.1749 118.905 63.2007 117.463 63.2901 116.02C63.341 115.21 63.4134 114.402 63.5026 113.595C63.508 113.545 63.5122 113.506 63.5161 113.47C63.5214 113.434 63.5277 113.393 63.5352 113.342C63.6012 112.896 63.6706 112.451 63.7483 112.007C64.0424 110.322 64.425 108.653 64.8943 107.008C65.1165 106.23 65.3579 105.458 65.6184 104.693C65.7346 104.353 65.8544 104.015 65.9779 103.677C65.9698 103.699 66.3402 102.753 66.3451 102.721C67.8147 99.2497 70.2183 96.0848 70.2216 92.141C70.2238 89.4709 67.9646 86.9131 65.318 87.0365C63.9984 87.0862 62.7497 87.6461 61.8349 88.5984C60.9202 89.5506 60.4108 90.8207 60.4143 92.141C60.4143 92.201 60.414 92.2522 60.4139 92.3018C60.3892 92.3849 60.3685 92.4543 60.35 92.5156C60.0634 93.1383 59.7123 93.73 59.3978 94.3373C58.5364 95.9992 57.8012 97.7157 57.1028 99.4574C55.9594 102.294 55.0843 105.231 54.4888 108.23C53.1943 114.802 53.0939 121.554 54.1922 128.161C56.0934 139.749 62.3633 150.841 71.08 158.297C71.8364 158.944 72.6113 159.569 73.3935 160.182C73.7172 160.435 74.0436 160.684 74.3716 160.931C74.5266 161.048 75.1689 161.554 74.8864 161.309C75.4939 161.828 75.7497 162.088 75.9058 162.47C75.9284 162.558 75.9592 162.678 76.0009 162.841C76.1109 163.272 76.2154 163.702 76.3022 164.138C77.0609 167.954 77.5882 171.834 78.222 175.674C78.6576 178.313 81.9065 180.03 84.2541 179.239C86.9867 178.319 88.1457 175.787 87.6789 172.96Z" fill="#E6E6E6"/>
<path d="M129.814 182.857C127.754 182.862 125.777 182.05 124.315 180.6C122.854 179.149 122.027 177.178 122.017 175.119V169.526C116.161 170.182 96.1065 170.03 90.358 169.106V174.895C90.3426 176.953 89.5143 178.921 88.0538 180.37C86.5933 181.82 84.619 182.633 82.5612 182.633C80.5034 182.633 78.529 181.82 77.0685 180.37C75.608 178.921 74.7798 176.953 74.7643 174.895V163.529C66.9785 159.204 60.4879 152.88 55.9624 145.21C51.4369 137.539 49.0404 128.801 49.0203 119.895C49.0203 104.625 55.9414 90.3801 68.0092 80.8132C75.8555 74.5718 85.3888 70.8182 95.3845 70.0346C96.7413 69.9282 98.1063 69.8744 99.4419 69.8744C104.147 69.8744 125.376 70.6011 130.702 72.1333L142.847 60.0835C143.025 59.9039 143.253 59.7816 143.502 59.7321C143.75 59.6826 144.008 59.7082 144.241 59.8056C144.477 59.8993 144.679 60.062 144.82 60.2724C144.961 60.4827 145.036 60.7309 145.033 60.9844V62.9003L147.398 60.5584C147.577 60.3787 147.804 60.2562 148.053 60.2066C148.301 60.157 148.558 60.1826 148.792 60.2801C149.027 60.3737 149.229 60.5365 149.371 60.7469C149.512 60.9574 149.587 61.2057 149.585 61.4593V82.8689C155.679 88.3623 160.324 95.274 163.108 102.992C165.891 110.709 166.728 118.994 165.544 127.112C164.36 135.231 161.191 142.931 156.318 149.532C151.446 156.133 145.02 161.431 137.611 164.955V175.119C137.6 177.178 136.774 179.149 135.312 180.6C133.851 182.05 131.873 182.862 129.814 182.857V182.857ZM122.63 168.831V175.119C122.645 177.014 123.409 178.826 124.755 180.16C126.1 181.495 127.919 182.244 129.814 182.244C131.709 182.244 133.527 181.495 134.873 180.16C136.218 178.826 136.982 177.014 136.998 175.119V164.567L137.173 164.484C145.487 160.54 152.545 154.368 157.563 146.655C163.957 136.813 166.617 125.006 165.06 113.373C163.502 101.74 157.832 91.0483 149.074 83.2336L148.972 83.1422V61.4593C148.974 61.3276 148.936 61.1983 148.862 61.089C148.789 60.9796 148.683 60.8954 148.56 60.8478C148.438 60.7956 148.303 60.7815 148.173 60.8073C148.043 60.8332 147.924 60.8978 147.831 60.9928L144.42 64.3699V60.9844C144.423 60.8526 144.384 60.7234 144.311 60.614C144.237 60.5047 144.132 60.4205 144.009 60.3728C143.887 60.3207 143.752 60.3068 143.621 60.3328C143.491 60.3589 143.371 60.4237 143.278 60.5189L130.873 72.8267L130.697 72.7715C125.745 71.2219 104.183 70.4872 99.4418 70.4872C98.1222 70.4872 96.7733 70.5405 95.4326 70.6457C85.5584 71.4197 76.141 75.1277 68.3901 81.2934C56.4698 90.7434 49.6332 104.813 49.6332 119.895C49.6535 128.722 52.0372 137.382 56.5366 144.976C61.0359 152.571 67.4868 158.822 75.2192 163.08L75.3773 163.168V174.895C75.3931 176.79 76.1569 178.602 77.5024 179.936C78.848 181.27 80.6662 182.019 82.5612 182.019C84.4561 182.019 86.2744 181.27 87.6199 179.936C88.9654 178.602 89.7292 176.79 89.745 174.895V168.372L90.1082 168.441C95.2741 169.413 117.027 169.566 122.284 168.876L122.63 168.831Z" fill="#3F3D56"/>
<path d="M88.2647 36.5027L54.3254 46.7011C53.2459 47.0268 52.3399 47.7676 51.8063 48.7608C51.2727 49.7541 51.1553 50.9184 51.4798 51.9982C51.8043 53.0779 52.5442 53.9847 53.5369 54.5193C54.5296 55.0539 55.694 55.1727 56.7742 54.8494L86.4748 45.9227L87.097 45.7358C87.223 42.53 88.0928 39.3973 89.6377 36.5854C89.4438 36.4982 89.2366 36.4443 89.0248 36.4261C88.7689 36.4013 88.5106 36.4273 88.2647 36.5027Z" fill="#FFB163"/>
<path d="M56.1872 57.0237C55.7367 57.0226 55.2979 56.88 54.9328 56.616C54.5678 56.3519 54.2949 55.9799 54.1529 55.5524L52.0306 49.149C51.9419 48.8816 51.9068 48.5993 51.9273 48.3183C51.9478 48.0374 52.0234 47.7632 52.1498 47.5114C52.2763 47.2597 52.4511 47.0353 52.6643 46.8511C52.8775 46.6669 53.1249 46.5266 53.3923 46.438L81.0155 37.2845C81.2829 37.1959 81.5651 37.1608 81.8461 37.1812C82.1271 37.2016 82.4013 37.2772 82.6531 37.4036C82.9048 37.53 83.1292 37.7047 83.3135 37.9179C83.4977 38.131 83.6381 38.3783 83.7268 38.6457L85.8491 45.0491C86.0256 45.5758 85.9902 46.1505 85.7504 46.6515C85.5105 47.1526 85.085 47.5406 84.564 47.7333C84.5385 47.7429 84.5127 47.7519 84.4867 47.7604L56.8642 56.9136C56.6459 56.9863 56.4173 57.0235 56.1872 57.0237Z" fill="#2F2E41"/>
<path d="M107.919 25.1306C102.344 25.1328 96.9883 27.304 92.9859 31.1846C88.9835 35.0653 86.6484 40.3509 86.4747 45.9228C86.4686 46.1403 86.4656 46.361 86.4656 46.5816C86.4656 50.8242 87.7238 54.9715 90.0811 58.4991C92.4384 62.0267 95.789 64.7762 99.7091 66.3997C103.629 68.0233 107.943 68.4481 112.104 67.6204C116.266 66.7927 120.088 64.7497 123.089 61.7498C126.089 58.7498 128.132 54.9276 128.96 50.7665C129.788 46.6054 129.363 42.2923 127.739 38.3727C126.116 34.453 123.366 31.1028 119.838 28.7458C116.31 26.3887 112.162 25.1306 107.919 25.1306V25.1306ZM107.919 67.4197C102.394 67.414 97.096 65.2167 93.1889 61.31C89.2818 57.4034 87.0843 52.1065 87.0785 46.5816C87.0785 46.2966 87.0847 46.0147 87.0969 45.7358C87.2629 41.654 88.6252 37.7109 91.0144 34.397C93.4036 31.083 96.7144 28.5444 100.535 27.0968C104.356 25.6492 108.517 25.3565 112.503 26.255C116.489 27.1535 120.122 29.2036 122.952 32.1504C125.782 35.0973 127.683 38.8108 128.419 42.8292C129.154 46.8477 128.693 50.9938 127.091 54.7519C125.489 58.5101 122.818 61.7145 119.409 63.9668C116 66.2191 112.005 67.4198 107.919 67.4197V67.4197Z" fill="#3F3D56"/>
<path d="M126.001 46.5816C126.001 51.3768 124.096 55.9755 120.705 59.3662C117.314 62.7569 112.715 64.6618 107.919 64.6618C103.123 64.6618 98.5241 62.7569 95.133 59.3662C91.742 55.9755 89.8369 51.3768 89.8369 46.5816C89.8369 46.0086 89.8644 45.4447 89.9165 44.887C90.3523 40.2592 92.5539 35.977 96.0642 32.9295C99.5744 29.882 104.124 28.3034 108.767 28.5215C113.411 28.7396 117.792 30.7376 121.002 34.1006C124.211 37.4637 126.001 41.9334 126.001 46.5816V46.5816Z" fill="#E6E6E6"/>
<path d="M113.304 47.7829C112.865 47.2067 112.289 46.7503 111.627 46.456C110.812 46.1122 109.969 45.8354 109.108 45.6286V40.7071C110.431 40.9066 111.672 41.4724 112.691 42.3404L113.69 40.2107C113.115 39.6988 112.456 39.2912 111.741 39.0064C110.948 38.6855 110.117 38.4722 109.267 38.372V35.8776H106.954V38.3965C106.06 38.4969 105.198 38.7862 104.425 39.2454C103.727 39.6586 103.139 40.2348 102.712 40.9247C102.304 41.5979 102.093 42.3717 102.102 43.1586C102.062 44.0114 102.309 44.853 102.804 45.5489C103.259 46.1514 103.86 46.6281 104.551 46.934C105.38 47.288 106.237 47.5719 107.113 47.7829V52.499C105.551 52.3813 104.064 51.7877 102.85 50.7983L101.851 52.9311C102.529 53.4921 103.301 53.9298 104.131 54.2243C105.04 54.5496 105.99 54.7476 106.954 54.8127V57.2857H109.268V54.7667C110.553 54.6263 111.758 54.0737 112.703 53.1916C113.119 52.7925 113.448 52.3113 113.669 51.7785C113.889 51.2457 113.997 50.673 113.984 50.0965C114.023 49.2709 113.783 48.4563 113.304 47.7829V47.7829ZM107.113 45.1076C106.549 44.9367 106.025 44.6555 105.571 44.2802C105.392 44.1202 105.249 43.9224 105.155 43.7009C105.061 43.4794 105.017 43.2398 105.026 42.9993C105.009 42.4535 105.21 41.9234 105.584 41.5253C105.998 41.1077 106.533 40.8302 107.113 40.7316V45.1076ZM110.561 51.6287C110.17 52.0297 109.661 52.2949 109.108 52.3856V48.3283C109.636 48.47 110.131 48.7171 110.561 49.0546C110.724 49.1939 110.854 49.3682 110.94 49.5645C111.027 49.7608 111.068 49.9741 111.06 50.1884C111.082 50.7144 110.903 51.2289 110.561 51.6287V51.6287Z" fill="#FFB163"/>
<path d="M57.1724 82.976C56.6986 82.9752 56.2383 82.8182 55.8629 82.5292C55.4875 82.2402 55.2179 81.8354 55.096 81.3777L53.9405 77.0047C53.7959 76.4551 53.8752 75.8705 54.161 75.3793C54.4469 74.888 54.9159 74.5302 55.4653 74.3843L91.9179 64.7529C92.468 64.6094 93.0525 64.6895 93.5436 64.9758C94.0347 65.2621 94.3925 65.7313 94.5386 66.2806L95.5174 69.9854L95.334 69.9997C85.9851 70.7265 77.0399 74.1157 69.557 79.7663L69.5038 79.7921L57.7166 82.9054C57.539 82.9523 57.3561 82.976 57.1724 82.976V82.976Z" fill="#2F2E41"/>
<path d="M51.135 104.576C46.8589 103.944 42.7693 102.398 39.1449 100.043C37.3493 98.8771 35.6871 97.5177 34.188 95.9893C32.7084 94.4803 31.2929 92.7652 30.56 90.7555C29.8548 88.8962 29.8912 86.8371 30.6615 85.0038C31.4213 83.1818 32.8727 81.7353 34.6974 80.9816C36.5331 80.2496 38.7509 80.1713 40.5375 80.9729C41.3888 81.346 42.1255 81.939 42.6719 82.6908C42.9259 83.0374 43.1139 83.4278 43.2267 83.8425C43.3313 84.2182 43.3408 84.6141 43.2544 84.9944C43.1496 85.3741 42.9649 85.7271 42.7125 86.0295C42.4602 86.332 42.1461 86.577 41.7913 86.7482C41.0104 87.1488 40.1644 87.4068 39.2929 87.5101C38.4163 87.6296 37.1571 87.7384 36.4524 87.0348C36.3074 86.8956 36.1933 86.7274 36.1176 86.5412C36.0646 86.3986 36.0465 86.2454 36.0647 86.0944C36.0545 86.1609 36.1073 85.9496 36.1042 85.958C36.0931 85.9893 36.0448 86.0654 36.1134 85.9484C36.1349 85.9099 36.1587 85.8727 36.1849 85.8372C36.1616 85.8673 36.1104 85.9176 36.2018 85.8313C36.2773 85.7487 36.3743 85.6888 36.482 85.6584C36.5244 85.646 36.5674 85.6362 36.61 85.6246C36.7181 85.595 36.5022 85.6262 36.6128 85.6226C36.6555 85.6213 36.6987 85.6223 36.7412 85.6204C36.8497 85.6155 36.6342 85.5908 36.7382 85.617C36.7786 85.6271 36.8186 85.637 36.8583 85.6496C36.9448 85.6768 36.7971 85.5861 36.8557 85.654C36.9243 85.7335 36.7836 85.5767 36.8616 85.6536C36.9005 85.6918 36.9371 85.7321 36.9713 85.7745C37.1066 85.908 37.2891 85.9829 37.4792 85.9829C37.6694 85.9829 37.8519 85.908 37.9872 85.7745C38.1179 85.6377 38.1909 85.4557 38.1909 85.2665C38.1909 85.0773 38.1179 84.8954 37.9872 84.7586C37.2788 83.8805 35.8796 84.0975 35.163 84.8396C34.249 85.786 34.611 87.286 35.4999 88.1118C36.5063 89.0467 37.9317 89.1117 39.2262 88.9549C40.3202 88.8501 41.3864 88.5488 42.3735 88.0656C43.3542 87.5837 44.1213 86.7551 44.5262 85.7402C44.7089 85.1986 44.7746 84.6243 44.7188 84.0554C44.663 83.4865 44.4869 82.936 44.2024 82.4402C43.0594 80.2917 40.6928 79.1901 38.3535 78.9993C37.1491 78.905 35.9379 79.0504 34.7901 79.4272C33.6423 79.804 32.5806 80.4046 31.6665 81.1943C29.9046 82.7804 28.8196 84.9828 28.636 87.3462C28.4318 89.7965 29.3826 92.1761 30.7688 94.1536C32.2201 96.1628 33.9519 97.9536 35.9114 99.4714C39.7421 102.529 44.2356 104.648 49.0322 105.659C49.6028 105.777 50.1764 105.877 50.753 105.961C50.9365 106.006 51.1301 105.979 51.2942 105.885C51.4584 105.792 51.5809 105.64 51.6367 105.46C51.686 105.276 51.661 105.08 51.5671 104.915C51.4732 104.75 51.318 104.628 51.135 104.576L51.135 104.576Z" fill="#3F3D56"/>
<path d="M119.598 73.3568C113.333 73.2684 107.087 73.4274 100.862 73.8338C98.7337 73.9727 96.8926 74.7247 96.8926 75.9887C96.8926 77.0455 98.7191 78.2835 100.862 78.1436C107.084 77.7373 113.329 77.5783 119.598 77.6666C124.708 77.7388 124.705 73.4289 119.598 73.3568Z" fill="#CCCCCC"/>
<path d="M110.338 77.4532C109.661 77.4532 93.7556 77.4279 93.7556 75.2311C93.7556 73.0346 109.661 73.0093 110.338 73.0093C111.015 73.0093 126.92 73.0346 126.92 75.2311C126.92 77.4279 111.015 77.4532 110.338 77.4532ZM94.3775 75.2311C94.8128 75.8971 100.659 76.8403 110.338 76.8403C120.016 76.8403 125.863 75.8971 126.298 75.2311C125.863 74.5653 120.016 73.6222 110.338 73.6222C100.659 73.6222 94.8128 74.5653 94.3775 75.2311V75.2311Z" fill="#3F3D56"/>
<path d="M160.8 135.202C164.321 135.105 168.703 134.982 172.079 132.517C173.084 131.752 173.91 130.778 174.499 129.66C175.088 128.543 175.425 127.311 175.487 126.05C175.556 124.102 174.852 122.403 173.506 121.265C171.743 119.775 169.168 119.426 166.393 120.241L169.268 99.235L167.158 98.9459L163.778 123.641L165.54 122.833C167.583 121.896 170.388 121.419 172.131 122.891C172.559 123.276 172.892 123.755 173.105 124.29C173.318 124.824 173.405 125.401 173.358 125.975C173.307 126.914 173.054 127.83 172.616 128.662C172.178 129.494 171.567 130.222 170.822 130.797C168.195 132.715 164.702 132.963 160.741 133.074L160.8 135.202Z" fill="#3F3D56"/>
<path d="M154.966 101.047H143.493V103.176H154.966V101.047Z" fill="#3F3D56"/>
<path d="M62.3634 92.7717C61.8528 92.7701 61.3594 92.5867 60.9717 92.2544C60.584 91.9222 60.3273 91.4627 60.2475 90.9584L59.5473 86.49C59.4598 85.928 59.5989 85.3543 59.934 84.8947C60.2691 84.4351 60.7728 84.1272 61.3347 84.0386L98.5813 78.2031C99.1433 78.1157 99.7171 78.2548 100.177 78.5898C100.636 78.9249 100.944 79.4286 101.033 79.9903L101.733 84.4589C101.821 85.0208 101.681 85.5946 101.346 86.0542C101.011 86.5137 100.508 86.8216 99.9457 86.9103L62.6991 92.7455C62.588 92.7629 62.4758 92.7717 62.3634 92.7717Z" fill="#2F2E41"/>
<path d="M46.9489 40.406C55.5813 40.406 62.5793 33.4088 62.5793 24.7774C62.5793 16.146 55.5813 9.1488 46.9489 9.1488C38.3165 9.1488 31.3186 16.146 31.3186 24.7774C31.3186 33.4088 38.3165 40.406 46.9489 40.406Z" fill="#FFB163"/>
<path d="M55.7987 28.8212C56.2983 28.6465 56.7546 28.3668 57.1371 28.0011C57.3901 27.7403 57.5831 27.4274 57.7025 27.0842C57.8218 26.741 57.8647 26.3759 57.8281 26.0144C57.8069 25.7568 57.7263 25.5075 57.5927 25.2862C57.4592 25.0648 57.2762 24.8773 57.0582 24.7383C56.4925 24.3905 55.7451 24.4037 54.9904 24.7535L54.9033 18.6528L54.2905 18.6616L54.3928 25.8335L54.8594 25.5275C55.4004 25.1733 56.1778 24.9164 56.7371 25.2604C56.8754 25.3515 56.9908 25.4732 57.0744 25.6162C57.1581 25.7591 57.2076 25.9194 57.2191 26.0846C57.2449 26.3539 57.2124 26.6256 57.1237 26.8812C57.0351 27.1368 56.8924 27.3703 56.7054 27.5659C56.041 28.2251 55.0575 28.4459 53.9351 28.6479L54.0437 29.2511C54.6404 29.1605 55.2277 29.0166 55.7987 28.8212V28.8212Z" fill="#2F2E41"/>
<path d="M61.2147 18.2246L57.9507 18.7189L58.0425 19.3248L61.3065 18.8305L61.2147 18.2246Z" fill="#2F2E41"/>
<path d="M50.912 19.7844L47.6479 20.2787L47.7397 20.8846L51.0038 20.3903L50.912 19.7844Z" fill="#2F2E41"/>
<path d="M57.2783 92.4985C56.7162 92.4973 56.1678 92.325 55.706 92.0045C55.2442 91.684 54.891 91.2305 54.6934 90.7043L43.9167 61.8469C42.5995 58.3077 42.7401 54.3907 44.3078 50.955C45.8754 47.5194 48.742 44.8459 52.2787 43.521L61.0413 40.2493C61.3802 40.1219 61.7409 40.0628 62.1026 40.0754C62.4644 40.0879 62.8201 40.1719 63.1493 40.3225C63.4777 40.4692 63.7735 40.6798 64.0196 40.9422C64.2656 41.2045 64.4569 41.5133 64.5822 41.8503L84.545 79.5379C84.6747 79.8777 84.7358 80.2398 84.7249 80.6034C84.714 80.9669 84.6313 81.3247 84.4815 81.6562C84.3318 81.9876 84.118 82.2862 83.8524 82.5348C83.5868 82.7833 83.2747 82.9768 82.934 83.1043L58.2423 92.3233C57.934 92.4389 57.6075 92.4983 57.2783 92.4985Z" fill="#2F2E41"/>
<path d="M58.3826 41.2419L78.1899 67.7264L64.7871 41.5198C64.6764 41.2141 64.5066 40.9331 64.2873 40.693C64.068 40.4528 63.8035 40.2583 63.5089 40.1204C63.2144 39.9825 62.8956 39.9039 62.5707 39.8892C62.2458 39.8746 61.9212 39.924 61.6154 40.0348L58.3826 41.2419Z" fill="#E6E6E6"/>
<path d="M89.745 61.3553L54.379 59.0774C53.8215 59.0415 53.2766 58.8962 52.7753 58.6497C52.2741 58.4032 51.8262 58.0605 51.4575 57.641C51.0887 57.2214 50.8061 56.7334 50.626 56.2047C50.4458 55.676 50.3716 55.117 50.4075 54.5596C50.4434 54.0022 50.5887 53.4573 50.8352 52.9561C51.0817 52.4549 51.4246 52.0071 51.8441 51.6384C52.2637 51.2696 52.7518 50.9871 53.2806 50.807C53.8093 50.6268 54.3684 50.5526 54.9258 50.5885L90.2918 52.8662C90.5529 52.883 90.8081 52.951 91.0429 53.0664C91.2776 53.1818 91.4874 53.3424 91.6601 53.5388C91.8328 53.7353 91.9651 53.9639 92.0495 54.2115C92.1339 54.4591 92.1686 54.7208 92.1518 54.9819L91.8611 59.4955C91.8271 60.0227 91.5851 60.5148 91.1882 60.8636C90.7914 61.2123 90.2722 61.3892 89.745 61.3553Z" fill="#FFB163"/>
<path d="M80.2948 62.8155C80.2481 62.8155 80.2013 62.814 80.1543 62.811H80.1543L51.1137 60.9406C50.8325 60.9226 50.5577 60.8493 50.3049 60.725C50.052 60.6007 49.8262 60.4278 49.6402 60.2163C49.4542 60.0047 49.3117 59.7585 49.2208 59.4919C49.13 59.2253 49.0925 58.9433 49.1106 58.6622L49.6072 50.9527C49.6254 50.6715 49.6987 50.3967 49.823 50.1439C49.9473 49.8912 50.1203 49.6653 50.3319 49.4794C50.5435 49.2934 50.7897 49.1509 51.0564 49.0601C51.3231 48.9693 51.605 48.9319 51.8862 48.95L80.9267 50.8202C81.4943 50.8574 82.0239 51.1182 82.3994 51.5453C82.7749 51.9725 82.9656 52.5311 82.9297 53.0986L82.4332 60.8083C82.4058 61.2215 82.2598 61.6179 82.0126 61.9501C81.7655 62.2822 81.4277 62.536 81.0399 62.681C80.8016 62.7701 80.5492 62.8157 80.2948 62.8155V62.8155Z" fill="#2F2E41"/>
<path d="M46.77 14.3846C48.8262 12.6163 51.6499 14.1981 54.0079 13.9212C56.264 13.6563 58.0454 11.6329 58.5004 9.48321C59.0314 6.97528 57.7295 4.4627 55.8106 2.89905C53.709 1.18647 50.9217 0.694832 48.2803 1.01167C45.2531 1.37481 42.4845 2.78578 40.0003 4.49241C37.6024 6.08871 35.3972 7.95707 33.4289 10.0602C31.6663 12.0066 30.1729 14.3267 29.6961 16.9459C29.2627 19.3262 29.5936 21.9639 31.0009 23.9804C31.7472 25.0139 32.7472 25.8376 33.9045 26.3722C35.1113 26.9647 36.3985 27.3883 37.5676 28.0582C39.3353 29.0711 41.0533 31.1713 40.4996 33.3569C40.3809 33.8343 40.1466 34.2752 39.8174 34.6409C39.4218 35.0799 38.7083 34.4997 39.1049 34.0595C39.8015 33.2863 39.774 32.2552 39.4028 31.3321C38.9614 30.2919 38.1798 29.4325 37.1859 28.8946C35.9622 28.195 34.6111 27.7632 33.3568 27.1259C32.1563 26.5438 31.1142 25.6803 30.3192 24.6088C28.818 22.5229 28.369 19.8082 28.7094 17.2968C29.0778 14.5792 30.4743 12.1096 32.2249 10.0401C34.13 7.78793 36.4702 5.88152 38.8609 4.16887C41.4261 2.33117 44.2602 0.777534 47.3963 0.215607C50.1148 -0.271496 53.0614 0.0283953 55.4387 1.50969C57.6576 2.89239 59.3592 5.2709 59.5284 7.92866C59.5892 9.13793 59.3266 10.3415 58.7676 11.4156C58.2087 12.4897 57.3736 13.3955 56.3483 14.0398C55.2963 14.6692 54.0732 14.9526 52.8514 14.8498C51.5454 14.7662 50.238 14.3663 48.9236 14.4773C48.3288 14.5134 47.762 14.7424 47.3091 15.1296C46.8598 15.5159 46.3244 14.7678 46.77 14.3846V14.3846Z" fill="#2F2E41"/>
<path d="M226.635 183H0.364839C0.26824 183 0.175695 182.961 0.107488 182.893C0.0392808 182.824 0.000976562 182.732 0.000976562 182.635C0.000976562 182.539 0.0392808 182.446 0.107488 182.378C0.175695 182.309 0.26824 182.271 0.364839 182.27H226.635C226.732 182.27 226.825 182.309 226.893 182.377C226.962 182.446 227 182.538 227 182.635C227 182.732 226.962 182.825 226.893 182.893C226.825 182.962 226.732 183 226.635 183V183Z" fill="#3F3D56"/>
</g>
<defs>
<clipPath id="clip0_35334_3954">
<rect width="227" height="183" fill="white"/>
</clipPath>
</defs>
</svg>
