<svg width="298" height="157" viewBox="0 0 298 157" fill="none" xmlns="http://www.w3.org/2000/svg">
<g clip-path="url(#clip0_35334_4020)">
<path d="M245.12 156.334H55.2982C51.4739 156.33 47.8075 154.81 45.1033 152.108C42.3992 149.406 40.878 145.742 40.8737 141.921V106.63C40.878 102.808 42.3992 99.145 45.1033 96.443C47.8075 93.741 51.4739 92.2211 55.2982 92.2168L245.12 57.3093C248.944 57.3137 252.611 58.8335 255.315 61.5355C258.019 64.2375 259.54 67.901 259.545 71.7222V141.921C259.54 145.742 258.019 149.406 255.315 152.108C252.611 154.81 248.944 156.33 245.12 156.334V156.334Z" fill="#3F3D56"/>
<path d="M58.6765 98.7788H58.0535V154.726H58.6765V98.7788Z" fill="#2F2E41"/>
<path d="M44.6591 100.879H44.0361V124.847H44.6591V100.879Z" fill="#2F2E41"/>
<path d="M53.0624 92.2168H52.4395V148.164H53.0624V92.2168Z" fill="#2F2E41"/>
<path d="M218.466 91.7499H99.1733C98.3756 91.749 97.6108 91.4319 97.0467 90.8683C96.4826 90.3047 96.1653 89.5405 96.1644 88.7435V18.7109C96.1653 17.9138 96.4826 17.1496 97.0467 16.586C97.6108 16.0224 98.3756 15.7054 99.1733 15.7045H218.466C219.263 15.7054 220.028 16.0224 220.592 16.586C221.156 17.1496 221.474 17.9138 221.474 18.7109V88.7435C221.474 89.5405 221.156 90.3047 220.592 90.8683C220.028 91.4319 219.263 91.749 218.466 91.7499Z" fill="#E6E7E8"/>
<path d="M203.787 91.7499H98.8122C98.1102 91.7491 97.4372 91.4701 96.9408 90.9741C96.4445 90.4782 96.1652 89.8057 96.1644 89.1043V27.4773C96.1652 26.7759 96.4444 26.1034 96.9408 25.6074C97.4372 25.1114 98.1102 24.8324 98.8122 24.8317H203.787C204.489 24.8324 205.162 25.1114 205.658 25.6074C206.154 26.1034 206.434 26.7759 206.434 27.4773V89.1043C206.434 89.8057 206.154 90.4782 205.658 90.9741C205.162 91.4701 204.489 91.7491 203.787 91.7499Z" fill="#2F2E41"/>
<path d="M233.223 117.117H68.1297C67.4277 117.116 66.7547 116.837 66.2583 116.341C65.762 115.845 65.4827 115.172 65.4819 114.471V90.5049C65.4827 89.8034 65.762 89.131 66.2583 88.635C66.7547 88.1391 67.4277 87.8601 68.1297 87.8593H233.223C233.925 87.8601 234.598 88.1391 235.094 88.635C235.591 89.131 235.87 89.8034 235.871 90.5049V114.471C235.87 115.172 235.591 115.845 235.094 116.341C234.598 116.837 233.925 117.116 233.223 117.117Z" fill="#3F3D56"/>
<path d="M154.648 94.5511H95.4635C94.0873 94.5511 92.9716 95.6659 92.9716 97.0411V108.869C92.9716 110.244 94.0873 111.359 95.4635 111.359H154.648C156.024 111.359 157.14 110.244 157.14 108.869V97.0411C157.14 95.6659 156.024 94.5511 154.648 94.5511Z" fill="#F9A826"/>
<path d="M187.511 98.1304C189.059 98.1304 190.314 96.8763 190.314 95.3292C190.314 93.7821 189.059 92.528 187.511 92.528C185.963 92.528 184.708 93.7821 184.708 95.3292C184.708 96.8763 185.963 98.1304 187.511 98.1304Z" fill="#2F2E41"/>
<path d="M196.544 98.1304C198.093 98.1304 199.348 96.8763 199.348 95.3292C199.348 93.7821 198.093 92.528 196.544 92.528C194.996 92.528 193.741 93.7821 193.741 95.3292C193.741 96.8763 194.996 98.1304 196.544 98.1304Z" fill="#2F2E41"/>
<path d="M205.578 98.1304C207.126 98.1304 208.381 96.8763 208.381 95.3292C208.381 93.7821 207.126 92.528 205.578 92.528C204.029 92.528 202.774 93.7821 202.774 95.3292C202.774 96.8763 204.029 98.1304 205.578 98.1304Z" fill="#2F2E41"/>
<path d="M187.511 105.289C189.059 105.289 190.314 104.035 190.314 102.488C190.314 100.941 189.059 99.6866 187.511 99.6866C185.963 99.6866 184.708 100.941 184.708 102.488C184.708 104.035 185.963 105.289 187.511 105.289Z" fill="#2F2E41"/>
<path d="M196.544 105.289C198.093 105.289 199.348 104.035 199.348 102.488C199.348 100.941 198.093 99.6866 196.544 99.6866C194.996 99.6866 193.741 100.941 193.741 102.488C193.741 104.035 194.996 105.289 196.544 105.289Z" fill="#2F2E41"/>
<path d="M205.578 105.289C207.126 105.289 208.381 104.035 208.381 102.488C208.381 100.941 207.126 99.6866 205.578 99.6866C204.029 99.6866 202.774 100.941 202.774 102.488C202.774 104.035 204.029 105.289 205.578 105.289Z" fill="#2F2E41"/>
<path d="M187.511 112.448C189.059 112.448 190.314 111.194 190.314 109.647C190.314 108.099 189.059 106.845 187.511 106.845C185.963 106.845 184.708 108.099 184.708 109.647C184.708 111.194 185.963 112.448 187.511 112.448Z" fill="#2F2E41"/>
<path d="M166.591 101.58C168.139 101.58 169.394 100.326 169.394 98.7789C169.394 97.2318 168.139 95.9777 166.591 95.9777C165.043 95.9777 163.787 97.2318 163.787 98.7789C163.787 100.326 165.043 101.58 166.591 101.58Z" fill="#2F2E41"/>
<path d="M166.591 108.739C168.139 108.739 169.394 107.485 169.394 105.938C169.394 104.391 168.139 103.136 166.591 103.136C165.043 103.136 163.787 104.391 163.787 105.938C163.787 107.485 165.043 108.739 166.591 108.739Z" fill="#2F2E41"/>
<path d="M244.431 63.008C247.74 63.008 250.423 60.3276 250.423 57.0211C250.423 53.7147 247.74 51.0343 244.431 51.0343C241.122 51.0343 238.439 53.7147 238.439 57.0211C238.439 60.3276 241.122 63.008 244.431 63.008Z" fill="#3F3D56"/>
<path d="M85.0704 101.58C86.6188 101.58 87.8739 100.326 87.8739 98.7789C87.8739 97.2318 86.6188 95.9777 85.0704 95.9777C83.5221 95.9777 82.267 97.2318 82.267 98.7789C82.267 100.326 83.5221 101.58 85.0704 101.58Z" fill="#2F2E41"/>
<path d="M85.0704 108.739C86.6188 108.739 87.8739 107.485 87.8739 105.938C87.8739 104.391 86.6188 103.136 85.0704 103.136C83.5221 103.136 82.267 104.391 82.267 105.938C82.267 107.485 83.5221 108.739 85.0704 108.739Z" fill="#2F2E41"/>
<path d="M196.544 112.448C198.093 112.448 199.348 111.194 199.348 109.647C199.348 108.099 198.093 106.845 196.544 106.845C194.996 106.845 193.741 108.099 193.741 109.647C193.741 111.194 194.996 112.448 196.544 112.448Z" fill="#2F2E41"/>
<path d="M205.578 112.448C207.126 112.448 208.381 111.194 208.381 109.647C208.381 108.099 207.126 106.845 205.578 106.845C204.029 106.845 202.774 108.099 202.774 109.647C202.774 111.194 204.029 112.448 205.578 112.448Z" fill="#2F2E41"/>
<path d="M232.756 142.172H67.351C66.649 142.171 65.976 141.892 65.4796 141.396C64.9833 140.9 64.7041 140.228 64.7032 139.526V126.454C64.7041 125.753 64.9833 125.08 65.4796 124.584C65.976 124.088 66.649 123.809 67.351 123.808H232.756C233.458 123.809 234.131 124.088 234.627 124.584C235.124 125.08 235.403 125.753 235.404 126.454V139.526C235.403 140.228 235.124 140.9 234.627 141.396C234.131 141.892 233.458 142.171 232.756 142.172Z" fill="#2F2E41"/>
<path d="M108.157 38.3708H196.934C197.595 38.3708 198.228 38.6332 198.696 39.1001C199.163 39.5671 199.426 40.2004 199.426 40.8608V84.5968C199.426 85.2572 199.163 85.8906 198.696 86.3575C198.228 86.8245 197.595 87.0868 196.934 87.0868H108.157C107.496 87.0868 106.862 86.8245 106.395 86.3575C105.928 85.8906 105.665 85.2572 105.665 84.5968V40.8608C105.665 40.5338 105.729 40.2101 105.855 39.908C105.98 39.6059 106.164 39.3314 106.395 39.1001C106.626 38.8689 106.901 38.6855 107.203 38.5604C107.506 38.4353 107.83 38.3708 108.157 38.3708Z" fill="white"/>
<path d="M124.789 51.6633C127.424 51.6633 129.559 49.5294 129.559 46.8971C129.559 44.2649 127.424 42.131 124.789 42.131C122.155 42.131 120.019 44.2649 120.019 46.8971C120.019 49.5294 122.155 51.6633 124.789 51.6633Z" fill="#F9A826"/>
<path d="M143.856 58.9075H121.44C121.063 58.9078 120.702 58.7589 120.436 58.4933C120.169 58.2278 120.019 57.8674 120.018 57.4913C120.017 57.1153 120.166 56.7542 120.431 56.4875C120.697 56.2208 121.057 56.0703 121.433 56.069H143.856C144.043 56.0686 144.228 56.105 144.4 56.176C144.573 56.2471 144.73 56.3514 144.862 56.483C144.994 56.6146 145.099 56.771 145.171 56.9432C145.242 57.1153 145.279 57.2999 145.28 57.4864C145.28 57.6728 145.243 57.8575 145.172 58.0299C145.101 58.2022 144.996 58.3589 144.865 58.4908C144.733 58.6228 144.576 58.7276 144.404 58.799C144.231 58.8705 144.047 58.9074 143.86 58.9075H143.856Z" fill="#CCCCCC"/>
<path d="M132.257 64.5157H121.44C121.063 64.5162 120.701 64.3672 120.435 64.1015C120.168 63.8357 120.018 63.4749 120.017 63.0985C120.017 62.7221 120.166 62.3608 120.432 62.0942C120.698 61.8277 121.059 61.6776 121.435 61.677H132.257C132.633 61.6776 132.994 61.8273 133.26 62.0935C133.526 62.3596 133.675 62.7203 133.675 63.0963C133.675 63.4724 133.526 63.8331 133.26 64.0992C132.994 64.3653 132.633 64.5151 132.257 64.5157H132.257Z" fill="#CCCCCC"/>
<path d="M184.974 75.4036H124.555C124.178 75.4038 123.817 75.2546 123.55 74.9889C123.284 74.7231 123.134 74.3624 123.133 73.9862C123.133 73.6099 123.282 73.2489 123.548 72.9824C123.814 72.7159 124.174 72.5658 124.551 72.5651H184.974C185.161 72.5647 185.346 72.6011 185.518 72.6721C185.691 72.7431 185.847 72.8475 185.98 72.9791C186.112 73.1107 186.217 73.2671 186.288 73.4393C186.36 73.6114 186.397 73.796 186.397 73.9825C186.398 74.1689 186.361 74.3536 186.29 74.526C186.219 74.6983 186.114 74.855 185.982 74.9869C185.85 75.1189 185.694 75.2236 185.521 75.2951C185.349 75.3666 185.164 75.4035 184.978 75.4036H184.974Z" fill="#CCCCCC"/>
<path d="M173.375 81.0118H124.555C124.178 81.0112 123.818 80.8614 123.552 80.5953C123.286 80.3292 123.136 79.9685 123.136 79.5924C123.136 79.2164 123.286 78.8557 123.552 78.5895C123.818 78.3234 124.178 78.1737 124.555 78.1731H173.375C173.751 78.1737 174.112 78.3234 174.378 78.5895C174.644 78.8557 174.793 79.2164 174.793 79.5924C174.793 79.9685 174.644 80.3292 174.378 80.5953C174.112 80.8614 173.751 81.0112 173.375 81.0118V81.0118Z" fill="#CCCCCC"/>
<path d="M20.3505 139.904L20.0397 132.921C16.7998 131.191 13.1861 130.277 9.51245 130.258C14.5685 134.389 13.9366 142.351 17.3645 147.905C18.447 149.629 19.9038 151.088 21.6271 152.173C23.3504 153.258 25.296 153.942 27.3197 154.174L31.5508 156.762C32.1314 153.528 32.0034 150.207 31.1756 147.027C30.3479 143.847 28.84 140.884 26.756 138.343C25.5727 136.929 24.2159 135.669 22.7176 134.593C21.7043 137.263 20.3505 139.904 20.3505 139.904Z" fill="#F2F2F2"/>
<path d="M43.4637 80.6185C43.8397 80.3816 44.1591 80.0652 44.3994 79.6916C44.6397 79.318 44.7951 78.8963 44.8547 78.4562C44.9143 78.0161 44.8765 77.5683 44.7442 77.1443C44.6118 76.7203 44.388 76.3305 44.0885 76.0023L54.177 53.6654L48.5831 54.144L39.612 75.9297C39.0936 76.4689 38.7912 77.1794 38.762 77.9265C38.7328 78.6736 38.9789 79.4055 39.4536 79.9834C39.9284 80.5614 40.5988 80.9453 41.3379 81.0623C42.077 81.1793 42.8334 81.0214 43.4637 80.6185L43.4637 80.6185Z" fill="#9E616A"/>
<path d="M61.7924 32.6689L59.1187 29.4903C59.1187 29.4903 57.5946 29.2674 54.6294 33.6589C51.7107 37.9815 47.3147 47.1565 49.612 48.4599L39.4148 70.2216L45.9184 73.2914L56.8829 49.7975L61.7441 43.1882L61.7924 32.6689Z" fill="#E6E6E6"/>
<path d="M56.7997 70.0936L75.4895 69.7824L77.047 57.0212H56.7997V70.0936Z" fill="#9E616A"/>
<path d="M74.0778 148.165L78.3923 148.164L80.4451 131.535L74.0771 131.535L74.0778 148.165Z" fill="#9E616A"/>
<path d="M46.59 148.106L50.9045 148.076L52.8405 131.433L47.2292 132.719L46.59 148.106Z" fill="#9E616A"/>
<path d="M60.0847 46.0313L59.1072 48.5711L59.3025 51.1109L78.4362 57.7327L77.4868 46.6174L75.3359 44.0776L60.0847 46.0313Z" fill="#FFB6B6"/>
<path d="M68.2931 23.1754C72.0673 23.1754 75.1268 20.1183 75.1268 16.3472C75.1268 12.576 72.0673 9.51892 68.2931 9.51892C64.5189 9.51892 61.4594 12.576 61.4594 16.3472C61.4594 20.1183 64.5189 23.1754 68.2931 23.1754Z" fill="#9E616A"/>
<path d="M73.0077 146.038L79.8283 145.631V148.551L86.3128 153.026C86.6331 153.247 86.8743 153.564 87.0012 153.932C87.1282 154.299 87.1341 154.698 87.0183 155.069C86.9025 155.441 86.6709 155.765 86.3574 155.996C86.0438 156.226 85.6648 156.35 85.2756 156.35H77.1554L75.7558 153.462L75.2093 156.35H72.1477L73.0077 146.038Z" fill="#2F2E41"/>
<path d="M45.114 145.99L51.9316 145.535L51.952 148.455L58.4677 152.885C58.7896 153.103 59.033 153.419 59.1625 153.786C59.292 154.153 59.3008 154.551 59.1875 154.923C59.0743 155.295 58.845 155.622 58.5331 155.854C58.2212 156.087 57.8431 156.214 57.4538 156.216L49.3339 156.273L47.9141 153.395L47.3878 156.287L44.3263 156.308L45.114 145.99Z" fill="#2F2E41"/>
<path d="M45.2474 136.271L48.3892 111.178L50.2186 87.2368C49.2841 76.3431 55.5536 63.8686 55.5536 63.8686L58.006 52.9995L76.1167 67.6225L76.1124 67.6036C80.1403 78.5807 81.4748 84.0036 81.254 95.6932L80.4605 137.715H80.7095C81.1225 137.715 81.5187 137.879 81.8108 138.171C82.1028 138.462 82.2669 138.858 82.2669 139.271C82.2669 139.684 82.1028 140.08 81.8108 140.371C81.5187 140.663 81.1225 140.827 80.7095 140.827H72.922C72.509 140.827 72.1128 140.663 71.8207 140.371C71.5286 140.08 71.3645 139.684 71.3645 139.271C71.3645 138.858 71.5286 138.462 71.8207 138.171C72.1128 137.879 72.509 137.715 72.922 137.715H73.1228L65.9749 87.6796L59.9146 108.688L53.0616 136.078C55.5536 135.456 55.1667 136.898 55.1667 137.715C55.1667 138.127 55.0026 138.523 54.7105 138.815C54.4184 139.107 54.0223 139.271 53.6092 139.271H45.8218C45.4596 139.271 45.1086 139.145 44.8293 138.915C44.5501 138.685 44.36 138.364 44.292 138.008C44.2239 137.653 44.2821 137.285 44.4565 136.968C44.631 136.651 44.9107 136.404 45.2474 136.271L45.2474 136.271Z" fill="#2F2E41"/>
<path d="M54.0203 64.6857L54.6433 58.4607C54.708 58.2067 54.8515 57.9798 55.0532 57.8123C55.255 57.6449 55.5046 57.5456 55.7663 57.5286C56.0259 54.5632 57.118 41.7705 57.1832 41.2126L57.1858 41.189L57.6824 30.5886C57.7004 30.2036 57.8598 29.8388 58.13 29.5637C58.4002 29.2887 58.7623 29.1228 59.1472 29.0976L61.7703 28.9263C61.8062 28.9251 61.8403 28.91 61.8654 28.8841C61.8904 28.8582 61.9044 28.8237 61.9044 28.7877C61.9044 28.2031 62.1368 27.6425 62.5505 27.2292C62.9641 26.8158 63.5252 26.5836 64.1102 26.5836H71.8762C72.3792 26.5838 72.8649 26.7675 73.242 27.1001C73.6191 27.4327 73.8618 27.8914 73.9245 28.39C73.9279 28.4244 73.9442 28.4562 73.9701 28.479C73.996 28.5019 74.0295 28.5141 74.064 28.5133L74.065 28.5133C74.9474 28.4952 75.8071 28.7937 76.4881 29.3547C77.1691 29.9157 77.6262 30.7021 77.7766 31.5711C78.8383 37.7435 78.7856 57.3548 77.7336 65.143C77.3674 67.8542 78.1568 65.7068 78.2953 67.9753C78.309 68.1945 78.2794 68.4142 78.208 68.622C78.1366 68.8297 78.0249 69.0214 77.8792 69.1859C78.5203 69.372 78.7689 70.064 78.6045 70.716L78.741 70.6823C78.6602 71.0024 78.4554 71.2774 78.1717 71.4467C77.888 71.6161 77.5486 71.6659 77.2282 71.5852L53.9566 69.1844C53.2893 69.0163 53.8521 65.3524 54.0203 64.6857Z" fill="#E6E6E6"/>
<path d="M98.9192 57.3026C98.575 57.5835 98.1733 57.7856 97.7424 57.8946C97.3116 58.0037 96.862 58.017 96.4254 57.9336C95.9889 57.8502 95.5759 57.6722 95.2156 57.4121C94.8553 57.152 94.5565 56.8162 94.3402 56.4282L83.8167 57.9553L86.0478 52.8074L95.6933 52.1639C96.3696 51.844 97.1399 51.7831 97.8582 51.9928C98.5765 52.2025 99.1928 52.6681 99.5905 53.3015C99.9881 53.9349 100.139 54.6921 100.016 55.4295C99.892 56.1669 99.5019 56.8334 98.9193 57.3026L98.9192 57.3026Z" fill="#9E616A"/>
<path d="M79.3603 37.447C79.3603 37.447 80.5649 30.792 77.011 29.8708C73.4571 28.9496 71.567 34.9184 71.567 34.9184C68.7038 43.7394 68.3595 49.8159 71.4004 52.2036L71.3407 58.4024C71.3407 58.4024 93.6048 58.9622 91.7654 57.6143C89.9259 56.2664 91.6871 52.4548 91.6871 52.4548L80.7083 50.9967L81.4193 49.3511L80.6731 49.4943L80.1375 47.8145L79.3603 37.447Z" fill="#E6E6E6"/>
<path d="M36.3551 21.1029C35.0945 20.0089 33.8343 18.9139 32.5744 17.8179C32.9934 17.4938 33.4636 17.242 33.9657 17.0729C35.8181 16.4572 37.8257 17.0031 39.7507 17.3061C41.6785 17.6101 43.92 17.5616 45.2345 16.1228C46.6007 14.6266 46.3721 12.3421 46.5113 10.3251C46.7023 7.50944 47.819 4.72077 49.8267 2.73853C51.8344 0.756298 54.7606 -0.34074 57.5503 0.0947641C60.3388 0.533051 62.8723 2.59969 63.6241 5.31635C64.7599 5.41091 65.8217 5.91774 66.6091 6.74113C67.3965 7.56452 67.855 8.64749 67.8979 9.78553C67.9036 10.8495 67.4791 11.9614 66.6065 12.5736C65.7339 13.1857 64.3973 13.1495 63.6971 12.3435L64.7175 11.2488C62.927 11.1638 60.7771 13.6145 60.3394 15.3525C59.9001 17.0865 60.2962 18.9124 60.7449 20.6457C61.1936 22.3789 61.7012 24.1516 61.4878 25.929C61.1816 28.4858 59.3651 30.6985 57.1185 31.9621C54.8719 33.2258 52.2401 33.6487 49.6639 33.7081C47.7352 33.7532 45.8067 33.6073 43.9069 33.2723C44.4616 32.7845 45.0135 32.2957 45.5683 31.8079L40.9523 32.5972C40.2035 32.384 39.4603 32.1406 38.728 31.8691C36.598 31.0745 34.5274 30.0054 32.9233 28.4009C31.3175 26.7925 30.2177 24.5898 30.3005 22.3208C30.3293 21.5877 30.4904 20.8658 30.7761 20.19C32.6361 20.4933 34.4958 20.7977 36.3551 21.1029Z" fill="#2F2E41"/>
<path d="M75.611 9.89247C74.6311 9.12894 73.362 8.83932 72.1242 8.72965C69.9721 6.67845 68.8295 5.73603 65.9864 6.60869C63.1433 7.48135 62.1515 10.448 60.9239 13.1549C57.9811 19.6439 66.728 25.6097 71.0889 22.4973C70.0625 21.5504 71.914 18.5269 72.1752 17.1557C72.3957 16.0638 73.0393 15.1032 73.9656 14.4834C75.0055 15.0648 76.4806 14.3247 76.8389 13.1714C77.2072 11.9856 76.5908 10.656 75.611 9.89247Z" fill="#2F2E41"/>
<path d="M1.63372e-06 156.63C-0.000289603 156.728 0.0383678 156.822 0.107471 156.891C0.176574 156.961 0.270462 157 0.368481 157H297.629C297.728 157 297.822 156.961 297.891 156.892C297.961 156.822 298 156.728 298 156.63C298 156.531 297.961 156.437 297.891 156.368C297.822 156.298 297.728 156.259 297.629 156.259H0.370684C0.272669 156.259 0.17855 156.298 0.109035 156.367C0.039519 156.436 0.000299424 156.53 1.63372e-06 156.627V156.63V156.63Z" fill="#CCCCCC"/>
<path d="M203.787 156.281H98.8122C97.3506 156.28 96.1661 155.557 96.1644 154.666V140.986C96.1661 140.094 97.3506 139.372 98.8122 139.371H203.787C205.248 139.372 206.433 140.094 206.434 140.986V154.666C206.433 155.557 205.248 156.28 203.787 156.281Z" fill="#2F2E41"/>
<path d="M195.688 153.168H106.911C105.535 153.168 104.419 152.493 104.419 151.659V132.321C104.419 131.487 105.535 130.812 106.911 130.812H195.688C197.064 130.812 198.18 131.487 198.18 132.321V151.659C198.18 152.493 197.064 153.168 195.688 153.168Z" fill="white"/>
<path d="M119.87 141.525H180.289C180.665 141.524 181.027 141.674 181.293 141.939C181.56 142.205 181.71 142.566 181.71 142.942C181.711 143.318 181.562 143.679 181.296 143.946C181.03 144.212 180.669 144.362 180.293 144.363H119.87C119.493 144.364 119.131 144.215 118.864 143.95C118.597 143.685 118.447 143.324 118.446 142.948C118.445 142.571 118.593 142.21 118.859 141.943C119.125 141.676 119.486 141.526 119.862 141.525H119.87Z" fill="#CCCCCC"/>
<path d="M131.469 135.916H180.289C180.666 135.916 181.027 136.066 181.293 136.332C181.56 136.598 181.709 136.959 181.709 137.336C181.71 137.712 181.56 138.073 181.294 138.339C181.027 138.605 180.666 138.755 180.289 138.755H131.469C131.283 138.755 131.098 138.719 130.925 138.648C130.753 138.577 130.596 138.473 130.464 138.342C130.332 138.21 130.227 138.054 130.155 137.882C130.083 137.71 130.046 137.525 130.046 137.339C130.045 137.152 130.081 136.968 130.152 136.795C130.224 136.623 130.328 136.466 130.459 136.334C130.591 136.202 130.747 136.097 130.92 136.026C131.092 135.954 131.276 135.917 131.463 135.916H131.469V135.916Z" fill="#CCCCCC"/>
<path d="M65.8239 6.31236C64.729 7.91509 63.5124 9.6933 61.5829 10.3424C61.465 10.3777 61.3652 10.4571 61.3044 10.5641C61.2436 10.6711 61.2265 10.7974 61.2565 10.9167C61.2905 11.0354 61.3698 11.1361 61.4773 11.1971C61.5847 11.258 61.7119 11.2744 61.8313 11.2427C64.0176 10.5073 65.3847 8.60766 66.6308 6.78364C66.6618 6.7307 66.682 6.67218 66.6904 6.61143C66.6987 6.55067 66.695 6.48888 66.6794 6.42956C66.6639 6.37025 66.6368 6.31458 66.5997 6.26573C66.5626 6.21688 66.5162 6.17581 66.4632 6.14487C66.4102 6.11392 66.3517 6.09371 66.2909 6.08538C66.2301 6.07705 66.1682 6.08077 66.1089 6.09632C66.0495 6.11188 65.9938 6.13896 65.9449 6.17603C65.896 6.2131 65.8549 6.25942 65.8239 6.31236V6.31236Z" fill="#E6E6E6"/>
<path d="M245.432 57.3093H244.809V144.5H245.432V57.3093Z" fill="#2F2E41"/>
<path d="M251.046 67.5358H250.423V154.727H251.046V67.5358Z" fill="#2F2E41"/>
<path d="M256.486 66.895H255.863V148.188H256.486V66.895Z" fill="#2F2E41"/>
<path d="M231.691 87.6217H87.1582V88.2442H231.691V87.6217Z" fill="#2F2E41"/>
<path d="M231.691 117.19H87.1582V117.813H231.691V117.19Z" fill="#2F2E41"/>
</g>
<defs>
<clipPath id="clip0_35334_4020">
<rect width="298" height="157" fill="white"/>
</clipPath>
</defs>
</svg>
