<svg width="336" height="155" viewBox="0 0 336 155" fill="none" xmlns="http://www.w3.org/2000/svg">
<g clip-path="url(#clip0_35334_4148)">
<path d="M71.2561 146.375C63.2111 141.132 57.3617 131.709 58.5589 122.182C65.8029 129.702 75.4738 134.419 85.8606 135.496C89.8678 135.897 94.3666 135.926 97.2124 138.775C98.9831 140.548 99.7355 143.14 99.7742 145.645C99.8128 148.151 99.2108 150.617 98.6127 153.05L98.7597 153.658C89.1636 153.303 79.3011 151.618 71.2561 146.375Z" fill="#F0F0F0"/>
<path d="M58.7603 122.179C61.7697 129.536 67.0206 135.756 73.767 139.959C75.2033 140.889 76.7773 141.587 78.431 142.027C80.0558 142.404 81.7519 142.339 83.343 141.839C84.836 141.402 86.3125 140.783 87.8856 140.717C88.6913 140.695 89.4926 140.843 90.2368 141.153C90.9811 141.462 91.6515 141.925 92.2042 142.512C93.6192 143.938 94.4375 145.788 95.1747 147.624C95.9934 149.663 96.8114 151.794 98.4786 153.304C98.6806 153.487 98.3848 153.79 98.1831 153.607C95.2824 150.98 94.9632 146.764 92.6831 143.716C91.6192 142.293 90.1201 141.183 88.2875 141.136C86.685 141.095 85.1618 141.733 83.654 142.188C82.1089 142.699 80.4623 142.823 78.858 142.551C77.1872 142.197 75.5889 141.56 74.1316 140.669C70.8189 138.716 67.8338 136.254 65.2858 133.373C62.3596 130.102 60.0146 126.354 58.3523 122.292C58.2495 122.041 58.6582 121.93 58.7603 122.179H58.7603Z" fill="white"/>
<path d="M71.5151 138.733C70.6564 139.769 69.4573 140.467 68.132 140.7C66.8067 140.934 65.4414 140.689 64.2801 140.009C64.0456 139.871 64.2496 139.5 64.4844 139.638C65.5647 140.274 66.8365 140.502 68.0702 140.281C69.3038 140.061 70.4182 139.407 71.2121 138.438C71.3849 138.227 71.6869 138.524 71.5151 138.733V138.733Z" fill="white"/>
<path d="M82.6152 142.16C82.3832 139.419 81.1265 136.866 79.0957 135.01C78.8944 134.827 79.1901 134.524 79.3912 134.707C81.5009 136.642 82.8032 139.302 83.0384 142.155C83.0606 142.427 82.6373 142.43 82.6152 142.16Z" fill="white"/>
<path d="M62.8921 129.925C63.3079 129.593 63.6348 129.163 63.8434 128.674C64.0521 128.185 64.1359 127.652 64.0875 127.122C64.0618 126.85 64.4852 126.847 64.5107 127.117C64.5615 127.702 64.4681 128.291 64.2388 128.832C64.0095 129.373 63.6511 129.85 63.1951 130.22C63.155 130.259 63.1018 130.281 63.0462 130.281C62.9906 130.282 62.9369 130.262 62.8958 130.224C62.8559 130.185 62.8331 130.131 62.8324 130.075C62.8317 130.019 62.8531 129.965 62.8921 129.925Z" fill="white"/>
<path d="M86.0009 104.747C86.0217 104.916 86.0426 105.085 86.0666 105.256C86.3586 107.528 86.8348 109.772 87.4903 111.967C87.5383 112.138 87.5895 112.31 87.6423 112.478C89.278 117.749 91.8781 122.671 95.3105 126.992C96.6779 128.711 98.174 130.323 99.786 131.814C102.012 133.874 104.59 135.93 105.965 138.528C106.112 138.798 106.242 139.076 106.354 139.361L99.4901 153.432C99.4584 153.456 99.4299 153.482 99.3982 153.506L99.1498 154.08C99.0613 154.009 98.971 153.933 98.8825 153.862C98.831 153.821 98.781 153.777 98.7295 153.736C98.6956 153.708 98.6618 153.679 98.6297 153.656C98.6184 153.646 98.6071 153.637 98.599 153.629C98.5669 153.605 98.5395 153.58 98.5105 153.558C98.0048 153.136 97.5011 152.71 96.9995 152.28C96.9963 152.279 96.9963 152.279 96.9946 152.274C93.1812 148.987 89.6087 145.353 86.7013 141.292C86.6139 141.17 86.5232 141.046 86.4389 140.918C85.1386 139.08 83.9906 137.139 83.0065 135.114C82.4712 134.004 81.9924 132.867 81.5721 131.708C80.4917 128.712 79.8894 125.565 79.7872 122.381C79.5844 116.035 81.4136 109.695 85.6721 105.095C85.7811 104.978 85.8887 104.863 86.0009 104.747Z" fill="#F0F0F0"/>
<path d="M86.164 104.866C84.1378 112.551 84.5847 120.679 87.4413 128.096C88.0279 129.704 88.8643 131.209 89.9196 132.556C90.99 133.835 92.3834 134.804 93.9551 135.363C95.41 135.913 96.962 136.307 98.2578 137.201C98.9144 137.669 99.4646 138.27 99.8726 138.965C100.28 139.66 100.537 140.434 100.625 141.235C100.896 143.226 100.436 145.195 99.9187 147.105C99.3447 149.226 98.7148 151.42 99.1367 153.629C99.1878 153.897 98.7694 153.961 98.7183 153.693C97.9843 149.849 100.268 146.291 100.282 142.484C100.289 140.708 99.7611 138.919 98.3261 137.778C97.0712 136.781 95.4712 136.373 93.9932 135.828C92.452 135.306 91.0622 134.414 89.9451 133.231C88.8246 131.942 87.9317 130.472 87.3045 128.883C85.8355 125.329 84.9345 121.566 84.6344 117.732C84.2677 113.358 84.6519 108.954 85.7704 104.71C85.8398 104.447 86.2329 104.605 86.164 104.866Z" fill="white"/>
<path d="M86.3809 125.762C85.0714 126.072 83.6942 125.907 82.4953 125.296C81.2964 124.685 80.3539 123.667 79.8359 122.425C79.732 122.173 80.1183 122 80.2223 122.252C80.7025 123.409 81.5805 124.357 82.6981 124.924C83.8157 125.491 85.0991 125.64 86.3168 125.344C86.5815 125.28 86.644 125.698 86.3809 125.762V125.762Z" fill="white"/>
<path d="M93.1807 135.181C94.6458 132.852 95.1795 130.058 94.6754 127.353C94.6252 127.085 95.0436 127.022 95.0937 127.289C95.6131 130.104 95.0518 133.012 93.5218 135.431C93.3758 135.662 93.0355 135.41 93.1807 135.181Z" fill="white"/>
<path d="M84.7995 113.538C85.3312 113.523 85.851 113.377 86.3122 113.112C86.7733 112.847 87.1615 112.471 87.4417 112.019C87.5847 111.787 87.9249 112.039 87.7828 112.27C87.4709 112.768 87.0417 113.182 86.5329 113.476C86.024 113.77 85.4509 113.935 84.8636 113.956C84.8084 113.963 84.7528 113.948 84.708 113.915C84.6632 113.882 84.6326 113.833 84.6224 113.779C84.6142 113.723 84.6282 113.667 84.6614 113.622C84.6945 113.577 84.7442 113.546 84.7996 113.538H84.7995Z" fill="white"/>
<path d="M316.77 146.375C324.815 141.132 330.664 131.709 329.467 122.182C322.223 129.702 312.552 134.419 302.165 135.496C298.158 135.897 293.659 135.926 290.814 138.775C289.043 140.548 288.291 143.14 288.252 145.645C288.213 148.151 288.815 150.617 289.413 153.05L289.266 153.658C298.862 153.303 308.725 151.618 316.77 146.375Z" fill="#F0F0F0"/>
<path d="M329.266 122.179C326.256 129.536 321.005 135.756 314.259 139.959C312.823 140.889 311.249 141.587 309.595 142.027C307.97 142.404 306.274 142.339 304.683 141.839C303.19 141.402 301.713 140.783 300.14 140.717C299.335 140.695 298.533 140.843 297.789 141.153C297.045 141.462 296.374 141.925 295.822 142.512C294.407 143.938 293.588 145.788 292.851 147.624C292.033 149.663 291.215 151.794 289.547 153.304C289.345 153.487 289.641 153.79 289.843 153.607C292.744 150.98 293.063 146.764 295.343 143.716C296.407 142.293 297.906 141.183 299.738 141.136C301.341 141.095 302.864 141.733 304.372 142.188C305.917 142.699 307.564 142.823 309.168 142.551C310.839 142.197 312.437 141.56 313.894 140.669C317.207 138.716 320.192 136.254 322.74 133.373C325.666 130.102 328.011 126.354 329.674 122.292C329.776 122.041 329.368 121.93 329.266 122.179H329.266Z" fill="white"/>
<path d="M316.511 138.733C317.37 139.769 318.569 140.467 319.894 140.7C321.219 140.934 322.585 140.689 323.746 140.009C323.981 139.871 323.777 139.5 323.542 139.638C322.461 140.274 321.19 140.502 319.956 140.281C318.722 140.061 317.608 139.407 316.814 138.438C316.641 138.227 316.339 138.524 316.511 138.733V138.733Z" fill="white"/>
<path d="M305.411 142.16C305.643 139.419 306.9 136.866 308.93 135.01C309.132 134.827 308.836 134.524 308.635 134.707C306.525 136.642 305.223 139.302 304.988 142.155C304.965 142.427 305.389 142.43 305.411 142.16Z" fill="white"/>
<path d="M325.134 129.925C324.718 129.593 324.391 129.163 324.183 128.674C323.974 128.185 323.89 127.652 323.939 127.122C323.964 126.85 323.541 126.847 323.515 127.117C323.464 127.702 323.558 128.291 323.787 128.832C324.017 129.373 324.375 129.85 324.831 130.22C324.871 130.259 324.924 130.281 324.98 130.281C325.035 130.282 325.089 130.262 325.13 130.224C325.17 130.185 325.193 130.131 325.194 130.075C325.194 130.019 325.173 129.965 325.134 129.925Z" fill="white"/>
<path d="M302.025 104.747C302.004 104.916 301.983 105.085 301.959 105.256C301.667 107.528 301.191 109.772 300.536 111.967C300.488 112.138 300.436 112.31 300.384 112.478C298.748 117.749 296.148 122.671 292.716 126.992C291.348 128.711 289.852 130.323 288.24 131.814C286.014 133.874 283.436 135.93 282.061 138.528C281.914 138.798 281.784 139.076 281.672 139.361L288.536 153.432C288.568 153.456 288.596 153.482 288.628 153.506L288.876 154.08C288.965 154.009 289.055 153.933 289.144 153.862C289.195 153.821 289.245 153.777 289.297 153.736C289.33 153.708 289.364 153.679 289.396 153.656C289.408 153.646 289.419 153.637 289.427 153.629C289.459 153.605 289.487 153.58 289.516 153.558C290.021 153.136 290.525 152.71 291.026 152.28C291.03 152.279 291.03 152.279 291.031 152.274C294.845 148.987 298.417 145.353 301.325 141.292C301.412 141.17 301.503 141.046 301.587 140.918C302.887 139.08 304.035 137.139 305.02 135.114C305.555 134.004 306.034 132.867 306.454 131.708C307.534 128.712 308.137 125.565 308.239 122.381C308.442 116.035 306.612 109.695 302.354 105.095C302.245 104.978 302.137 104.863 302.025 104.747Z" fill="#F0F0F0"/>
<path d="M301.862 104.866C303.888 112.551 303.441 120.679 300.585 128.096C299.998 129.704 299.162 131.209 298.106 132.556C297.036 133.835 295.643 134.804 294.071 135.363C292.616 135.913 291.064 136.307 289.768 137.201C289.112 137.669 288.561 138.27 288.153 138.965C287.746 139.66 287.489 140.434 287.401 141.235C287.13 143.226 287.59 145.195 288.107 147.105C288.681 149.226 289.311 151.42 288.889 153.629C288.838 153.897 289.257 153.961 289.308 153.693C290.042 149.849 287.758 146.291 287.744 142.484C287.737 140.708 288.265 138.919 289.7 137.778C290.955 136.781 292.555 136.373 294.033 135.828C295.574 135.306 296.964 134.414 298.081 133.231C299.201 131.942 300.094 130.472 300.721 128.883C302.19 125.329 303.091 121.566 303.392 117.732C303.758 113.358 303.374 108.954 302.256 104.71C302.186 104.447 301.793 104.605 301.862 104.866Z" fill="white"/>
<path d="M301.645 125.762C302.955 126.072 304.332 125.907 305.531 125.296C306.73 124.685 307.672 123.667 308.19 122.425C308.294 122.173 307.908 122 307.804 122.252C307.323 123.409 306.445 124.357 305.328 124.924C304.21 125.491 302.927 125.64 301.709 125.344C301.444 125.28 301.382 125.698 301.645 125.762V125.762Z" fill="white"/>
<path d="M294.845 135.181C293.38 132.852 292.847 130.058 293.351 127.353C293.401 127.085 292.982 127.022 292.932 127.289C292.413 130.104 292.974 133.012 294.504 135.431C294.65 135.662 294.991 135.41 294.845 135.181Z" fill="white"/>
<path d="M303.226 113.538C302.695 113.523 302.175 113.377 301.714 113.112C301.253 112.847 300.865 112.471 300.584 112.019C300.441 111.787 300.101 112.039 300.243 112.27C300.555 112.768 300.984 113.182 301.493 113.476C302.002 113.77 302.575 113.935 303.162 113.956C303.218 113.963 303.273 113.948 303.318 113.915C303.363 113.882 303.393 113.833 303.404 113.779C303.412 113.723 303.398 113.667 303.365 113.622C303.331 113.577 303.282 113.546 303.226 113.538H303.226Z" fill="white"/>
<path d="M87.1014 100.143C86.797 99.9594 86.5365 99.7118 86.3382 99.417C86.1399 99.1222 86.0087 98.7876 85.9537 98.4366C85.8988 98.0857 85.9214 97.7269 86.0201 97.3857C86.1188 97.0444 86.2911 96.7289 86.5249 96.4615L82.2455 88.9612L86.7237 89.2505L90.1009 96.3285C90.5242 96.7511 90.7778 97.3142 90.8137 97.9112C90.8495 98.5083 90.6651 99.0977 90.2954 99.5678C89.9256 100.038 89.3963 100.356 88.8076 100.462C88.219 100.568 87.6119 100.454 87.1014 100.143Z" fill="#FFB6B6"/>
<path d="M54.1582 151.273H57.1211L58.5306 139.846L54.1578 139.847L54.1582 151.273Z" fill="#FFB6B6"/>
<path d="M53.4027 150.306L59.2373 150.306H59.2375C60.2236 150.306 61.1693 150.698 61.8666 151.395C62.5639 152.092 62.9557 153.038 62.9558 154.024V154.145L53.4029 154.145L53.4027 150.306Z" fill="#2F2E41"/>
<path d="M74.4577 151.273H77.4203L78.8298 139.846L74.457 139.847L74.4577 151.273Z" fill="#FFB6B6"/>
<path d="M73.7019 150.306L79.5365 150.306H79.5367C80.5228 150.306 81.4685 150.698 82.1658 151.395C82.8631 152.092 83.2549 153.038 83.255 154.024V154.145L73.7021 154.145L73.7019 150.306Z" fill="#2F2E41"/>
<path d="M82.0758 89.2836C82.0758 89.2836 82.8907 100.888 81.2858 106.732C79.6808 112.576 79.3942 147.918 79.3942 147.918H74.0145L69.3518 99.8101L58.6023 148.088L53.4781 147.736L56.2883 90.8467L82.0758 89.2836Z" fill="#2F2E41"/>
<path d="M58.5115 50.1664L62.6241 47.1654L69.5155 48.6659L71.3809 53.0982L74.5953 54.6919C75.6523 55.2159 76.5661 55.9887 77.2584 56.9438C77.9507 57.899 78.4008 59.0079 78.5698 60.1754L83.162 91.8854L56.2884 90.8466L53.035 53.5019C53.001 53.1118 53.0456 52.7189 53.1662 52.3463C53.2868 51.9738 53.4809 51.6292 53.737 51.333C53.9931 51.0368 54.3061 50.7949 54.6573 50.6218C55.0085 50.4487 55.3909 50.3478 55.7819 50.325L58.5115 50.1664Z" fill="#3F3D56"/>
<path d="M76.2958 57.1689L78.7779 60.5146L89.5886 93.486L84.5211 95.5148L76.4069 80.1509L76.2958 57.1689Z" fill="#3F3D56"/>
<path d="M67.2985 45.5987C70.6135 45.5987 73.3008 42.9115 73.3008 39.5967C73.3008 36.2819 70.6135 33.5947 67.2985 33.5947C63.9836 33.5947 61.2963 36.2819 61.2963 39.5967C61.2963 42.9115 63.9836 45.5987 67.2985 45.5987Z" fill="#FFB9B9"/>
<path opacity="0.1" d="M54.2136 64.2903L64.0085 77.9129L74.9571 85.0521L54.2136 64.2903Z" fill="black"/>
<path d="M64.1177 43.9356C63.7002 43.1021 63.2706 42.1948 63.4302 41.2763C63.5898 40.3578 64.6439 39.5575 65.4574 40.0128C65.7949 38.7931 67.2891 38.2593 68.5469 38.4001C69.8046 38.5409 70.9627 39.1476 72.2013 39.408C73.4398 39.6685 74.944 39.4618 75.6134 38.3878L74.0117 38.3601L75.6796 36.4256L73.7462 36.281C74.4159 35.5583 74.238 34.3304 73.5897 33.5885C72.9414 32.8466 71.9576 32.4955 70.9976 32.2735C69.0813 31.8318 67.0949 31.7862 65.1603 32.1394C64.2481 32.28 63.3692 32.5858 62.5668 33.0418C61.8112 33.5027 61.1868 34.1501 60.7538 34.922C60.2865 35.7928 60.034 36.7625 60.0171 37.7506C59.9886 39.0741 60.2927 40.3836 60.9016 41.5591C61.5105 42.7345 62.4047 43.7384 63.5023 44.4786" fill="#2F2E41"/>
<path d="M287.6 154.299H101.329C99.411 154.297 97.5719 153.534 96.2155 152.178C94.8591 150.821 94.0961 148.982 94.0939 147.064V7.23487C94.0961 5.31671 94.8591 3.47774 96.2155 2.12141C97.5719 0.765078 99.411 0.00215345 101.329 0H287.6C289.518 0.0021875 291.357 0.76513 292.713 2.12146C294.07 3.47778 294.833 5.31673 294.835 7.23487V147.064C294.833 148.982 294.07 150.821 292.713 152.178C291.357 153.534 289.518 154.297 287.6 154.299Z" fill="#E4E4E4"/>
<path d="M240.719 64.2019H211.965C210.544 64.2019 209.181 63.6375 208.177 62.6327C207.172 61.628 206.607 60.2652 206.607 58.8443C206.607 57.4234 207.172 56.0607 208.177 55.0559C209.181 54.0512 210.544 53.4867 211.965 53.4867H240.719C242.14 53.4867 243.503 54.0512 244.508 55.0559C245.513 56.0607 246.077 57.4234 246.077 58.8443C246.077 60.2652 245.513 61.628 244.508 62.6327C243.503 63.6375 242.14 64.2019 240.719 64.2019Z" fill="white"/>
<path d="M215.537 78.8462H208.751C208.23 78.8462 207.73 78.6392 207.362 78.2708C206.993 77.9024 206.786 77.4027 206.786 76.8817C206.786 76.3607 206.993 75.861 207.362 75.4926C207.73 75.1242 208.23 74.9172 208.751 74.9172H215.537C216.058 74.9172 216.558 75.1242 216.926 75.4926C217.295 75.861 217.502 76.3607 217.502 76.8817C217.502 77.4027 217.295 77.9024 216.926 78.2708C216.558 78.6392 216.058 78.8462 215.537 78.8462Z" fill="white"/>
<path d="M243.755 78.8462H236.969C236.448 78.8462 235.948 78.6392 235.58 78.2708C235.211 77.9024 235.004 77.4027 235.004 76.8817C235.004 76.3607 235.211 75.861 235.58 75.4926C235.948 75.1242 236.448 74.9172 236.969 74.9172H243.755C244.276 74.9172 244.776 75.1242 245.144 75.4926C245.513 75.861 245.72 76.3607 245.72 76.8817C245.72 77.4027 245.513 77.9024 245.144 78.2708C244.776 78.6392 244.276 78.8462 243.755 78.8462Z" fill="white"/>
<path d="M229.468 78.8462H222.681C222.16 78.8462 221.66 78.6392 221.292 78.2708C220.924 77.9024 220.717 77.4027 220.717 76.8817C220.717 76.3607 220.924 75.861 221.292 75.4926C221.66 75.1242 222.16 74.9172 222.681 74.9172H229.468C229.989 74.9172 230.488 75.1242 230.857 75.4926C231.225 75.861 231.432 76.3607 231.432 76.8817C231.432 77.4027 231.225 77.9024 230.857 78.2708C230.488 78.6392 229.989 78.8462 229.468 78.8462Z" fill="white"/>
<path d="M215.537 86.3468H208.751C208.23 86.3468 207.73 86.1398 207.362 85.7714C206.993 85.403 206.786 84.9033 206.786 84.3823C206.786 83.8613 206.993 83.3616 207.362 82.9932C207.73 82.6248 208.23 82.4178 208.751 82.4178H215.537C216.058 82.4178 216.558 82.6248 216.926 82.9932C217.295 83.3616 217.502 83.8613 217.502 84.3823C217.502 84.9033 217.295 85.403 216.926 85.7714C216.558 86.1398 216.058 86.3468 215.537 86.3468Z" fill="white"/>
<path d="M243.755 86.3468H236.969C236.448 86.3468 235.948 86.1398 235.58 85.7714C235.211 85.403 235.004 84.9033 235.004 84.3823C235.004 83.8613 235.211 83.3616 235.58 82.9932C235.948 82.6248 236.448 82.4178 236.969 82.4178H243.755C244.276 82.4178 244.776 82.6248 245.144 82.9932C245.513 83.3616 245.72 83.8613 245.72 84.3823C245.72 84.9033 245.513 85.403 245.144 85.7714C244.776 86.1398 244.276 86.3468 243.755 86.3468Z" fill="white"/>
<path d="M229.468 86.3468H222.681C222.16 86.3468 221.66 86.1398 221.292 85.7714C220.924 85.403 220.717 84.9033 220.717 84.3823C220.717 83.8613 220.924 83.3616 221.292 82.9932C221.66 82.6248 222.16 82.4178 222.681 82.4178H229.468C229.989 82.4178 230.488 82.6248 230.857 82.9932C231.225 83.3616 231.432 83.8613 231.432 84.3823C231.432 84.9033 231.225 85.403 230.857 85.7714C230.488 86.1398 229.989 86.3468 229.468 86.3468Z" fill="white"/>
<path d="M215.537 93.8474H208.751C208.23 93.8474 207.73 93.6404 207.362 93.272C206.993 92.9036 206.786 92.4039 206.786 91.8829C206.786 91.3619 206.993 90.8622 207.362 90.4938C207.73 90.1254 208.23 89.9185 208.751 89.9185H215.537C216.058 89.9185 216.558 90.1254 216.926 90.4938C217.295 90.8622 217.502 91.3619 217.502 91.8829C217.502 92.4039 217.295 92.9036 216.926 93.272C216.558 93.6404 216.058 93.8474 215.537 93.8474Z" fill="white"/>
<path d="M243.755 93.8474H236.969C236.448 93.8474 235.948 93.6404 235.58 93.272C235.211 92.9036 235.004 92.4039 235.004 91.8829C235.004 91.3619 235.211 90.8622 235.58 90.4938C235.948 90.1254 236.448 89.9185 236.969 89.9185H243.755C244.276 89.9185 244.776 90.1254 245.144 90.4938C245.513 90.8622 245.72 91.3619 245.72 91.8829C245.72 92.4039 245.513 92.9036 245.144 93.272C244.776 93.6404 244.276 93.8474 243.755 93.8474Z" fill="white"/>
<path d="M229.468 93.8474H222.681C222.16 93.8474 221.66 93.6404 221.292 93.272C220.924 92.9036 220.717 92.4039 220.717 91.8829C220.717 91.3619 220.924 90.8622 221.292 90.4938C221.66 90.1254 222.16 89.9185 222.681 89.9185H229.468C229.989 89.9185 230.488 90.1254 230.857 90.4938C231.225 90.8622 231.432 91.3619 231.432 91.8829C231.432 92.4039 231.225 92.9036 230.857 93.272C230.488 93.6404 229.989 93.8474 229.468 93.8474Z" fill="white"/>
<path d="M215.537 101.348H208.751C208.23 101.348 207.73 101.141 207.362 100.773C206.993 100.404 206.786 99.9047 206.786 99.3836C206.786 98.8626 206.993 98.363 207.362 97.9946C207.73 97.6262 208.23 97.4192 208.751 97.4192H215.537C216.058 97.4192 216.558 97.6262 216.926 97.9946C217.295 98.363 217.502 98.8626 217.502 99.3836C217.502 99.9047 217.295 100.404 216.926 100.773C216.558 101.141 216.058 101.348 215.537 101.348Z" fill="white"/>
<path d="M243.755 101.348H236.969C236.448 101.348 235.948 101.141 235.58 100.773C235.211 100.404 235.004 99.9047 235.004 99.3836C235.004 98.8626 235.211 98.363 235.58 97.9946C235.948 97.6262 236.448 97.4192 236.969 97.4192H243.755C244.276 97.4192 244.776 97.6262 245.144 97.9946C245.513 98.363 245.72 98.8626 245.72 99.3836C245.72 99.9047 245.513 100.404 245.144 100.773C244.776 101.141 244.276 101.348 243.755 101.348Z" fill="white"/>
<path d="M229.468 101.348H222.681C222.16 101.348 221.66 101.141 221.292 100.773C220.924 100.404 220.717 99.9047 220.717 99.3836C220.717 98.8626 220.924 98.363 221.292 97.9946C221.66 97.6262 222.16 97.4192 222.681 97.4192H229.468C229.989 97.4192 230.488 97.6262 230.857 97.9946C231.225 98.363 231.432 98.8626 231.432 99.3836C231.432 99.9047 231.225 100.404 230.857 100.773C230.488 101.141 229.989 101.348 229.468 101.348Z" fill="white"/>
<path d="M169.638 93.4902C179.699 93.4902 187.855 85.3347 187.855 75.2743C187.855 65.214 179.699 57.0585 169.638 57.0585C159.578 57.0585 151.422 65.214 151.422 75.2743C151.422 85.3347 159.578 93.4902 169.638 93.4902Z" fill="#CACACA"/>
<path d="M169.638 97.5978C168.218 97.5962 166.856 97.0312 165.851 96.0268C164.847 95.0224 164.282 93.6606 164.28 92.2402V58.3086C164.28 57.6047 164.418 56.9075 164.687 56.257C164.956 55.6065 165.351 55.0154 165.848 54.5174C166.346 54.0194 166.937 53.6244 167.587 53.3549C168.237 53.0854 168.934 52.9467 169.638 52.9467C170.342 52.9467 171.039 53.0854 171.69 53.3549C172.34 53.6244 172.931 54.0194 173.428 54.5174C173.926 55.0154 174.32 55.6065 174.589 56.257C174.858 56.9075 174.997 57.6047 174.996 58.3086V92.2402C174.994 93.6606 174.429 95.0224 173.425 96.0268C172.421 97.0312 171.059 97.5961 169.638 97.5978Z" fill="white"/>
<path d="M217.229 61.9015H212.228C212.039 61.9015 211.857 61.8262 211.723 61.6922C211.589 61.5583 211.514 61.3766 211.514 61.1871C211.514 60.9977 211.589 60.816 211.723 60.682C211.857 60.548 212.039 60.4728 212.228 60.4728H217.229C217.418 60.4728 217.6 60.548 217.734 60.682C217.868 60.816 217.943 60.9977 217.943 61.1871C217.943 61.3766 217.868 61.5583 217.734 61.6922C217.6 61.8262 217.418 61.9015 217.229 61.9015Z" fill="#E4E4E4"/>
<path d="M225.087 62.0801H220.086C219.897 62.0801 219.715 62.0048 219.581 61.8708C219.447 61.7369 219.372 61.5552 219.372 61.3657C219.372 61.1763 219.447 60.9946 219.581 60.8606C219.715 60.7266 219.897 60.6514 220.086 60.6514H225.087C225.277 60.6514 225.458 60.7266 225.592 60.8606C225.726 60.9946 225.801 61.1763 225.801 61.3657C225.801 61.5552 225.726 61.7369 225.592 61.8708C225.458 62.0048 225.277 62.0801 225.087 62.0801Z" fill="#E4E4E4"/>
<path d="M232.945 62.2587H227.945C227.755 62.2587 227.573 62.1834 227.439 62.0494C227.305 61.9155 227.23 61.7338 227.23 61.5443C227.23 61.3548 227.305 61.1731 227.439 61.0392C227.573 60.9052 227.755 60.83 227.945 60.83H232.945C233.135 60.83 233.316 60.9052 233.45 61.0392C233.584 61.1731 233.66 61.3548 233.66 61.5443C233.66 61.7338 233.584 61.9155 233.45 62.0494C233.316 62.1834 233.135 62.2587 232.945 62.2587Z" fill="#E4E4E4"/>
<path d="M240.804 62.4372H235.803C235.613 62.4372 235.432 62.362 235.298 62.228C235.164 62.094 235.089 61.9123 235.089 61.7229C235.089 61.5334 235.164 61.3517 235.298 61.2178C235.432 61.0838 235.613 61.0085 235.803 61.0085H240.804C240.993 61.0085 241.175 61.0838 241.309 61.2178C241.443 61.3517 241.518 61.5334 241.518 61.7229C241.518 61.9123 241.443 62.094 241.309 62.228C241.175 62.362 240.993 62.4372 240.804 62.4372Z" fill="#E4E4E4"/>
<path d="M117.846 132.243C117.845 133.128 118.021 134.003 118.362 134.82C118.703 135.636 119.202 136.376 119.832 136.997H116.881C116.011 136.997 115.148 136.826 114.344 136.493C113.54 136.16 112.809 135.671 112.194 135.056C111.578 134.44 111.09 133.709 110.757 132.905C110.423 132.101 110.252 131.239 110.252 130.368V22.9013C110.252 22.0308 110.423 21.1688 110.757 20.3645C111.09 19.5603 111.578 18.8295 112.194 18.214C112.809 17.5985 113.54 17.1102 114.344 16.777C115.148 16.4439 116.011 16.2725 116.881 16.2725H121.175C120.162 16.8614 119.322 17.7057 118.738 18.7211C118.153 19.7364 117.846 20.8873 117.846 22.0587L117.846 132.243Z" fill="#CACACA"/>
<path d="M335.575 155H0.425291C0.312708 155 0.20485 154.955 0.125357 154.875C0.0458632 154.795 0.0012207 154.687 0.0012207 154.575C0.0012207 154.462 0.0458632 154.354 0.125357 154.274C0.20485 154.195 0.312708 154.15 0.425291 154.149H335.575C335.688 154.149 335.796 154.194 335.875 154.274C335.955 154.354 336 154.462 336 154.575C336 154.687 335.955 154.796 335.875 154.875C335.796 154.955 335.688 155 335.575 155Z" fill="#CACACA"/>
<path d="M117.131 47.6752C114.874 47.043 112.608 46.4573 110.334 45.9179C102.557 44.0616 94.6735 42.6875 86.7274 41.8033C85.3805 41.4486 83.9481 41.6403 82.7419 42.3367C81.5357 43.0331 80.6534 44.1777 80.2872 45.5215L76.3188 60.1656C75.9545 61.5154 76.1406 62.9547 76.8365 64.1674C77.5323 65.3802 78.6808 66.2673 80.0301 66.634L80.0836 66.6447C85.3344 67.2412 90.635 68.0699 95.9071 69.1271C96.3787 69.22 96.8466 69.3164 97.3181 69.4164C99.0076 69.7665 100.692 70.1403 102.372 70.5379C103.108 70.7094 103.84 70.888 104.576 71.0701C106.555 71.563 108.535 72.0881 110.516 72.6453C112.72 73.2667 114.925 73.9299 117.131 74.6347C117.371 74.7062 117.61 74.7812 117.846 74.8597V47.8788C117.61 47.8074 117.371 47.7395 117.131 47.6752Z" fill="white"/>
<path d="M117.131 47.6752C114.874 47.043 112.608 46.4573 110.334 45.9179C102.557 44.0616 94.6735 42.6875 86.7274 41.8033C85.3805 41.4486 83.9481 41.6403 82.7419 42.3367C81.5357 43.0331 80.6534 44.1777 80.2872 45.5215L76.3188 60.1656C75.9545 61.5154 76.1406 62.9547 76.8365 64.1674C77.5323 65.3802 78.6808 66.2673 80.0301 66.634L80.0836 66.6447C85.3344 67.2412 90.635 68.0699 95.9071 69.1271C96.3787 69.22 96.8466 69.3164 97.3181 69.4164C99.0076 69.7665 100.692 70.1403 102.372 70.5379C103.108 70.7094 103.84 70.888 104.576 71.0701C106.555 71.563 108.535 72.0881 110.516 72.6453C112.72 73.2667 114.925 73.9299 117.131 74.6347C117.371 74.7062 117.61 74.7812 117.846 74.8597V74.1061C117.606 74.0311 117.367 73.9561 117.131 73.8811C115.103 73.2346 113.076 72.6262 111.052 72.0559C110.295 71.838 109.538 71.6273 108.78 71.4237C107.416 71.0558 106.055 70.7034 104.698 70.3665C103.976 70.1843 103.256 70.0093 102.537 69.8414C102.483 69.8271 102.426 69.8164 102.372 69.8021C101.147 69.5128 99.9195 69.2366 98.6896 68.9735C98.2182 68.8735 97.7467 68.7735 97.2751 68.677C91.5887 67.4984 85.8593 66.5804 80.1907 65.9375C79.0312 65.6146 78.0463 64.8468 77.4503 63.8013C76.8542 62.7557 76.6954 61.517 77.0082 60.3549L80.9766 45.7072C81.294 44.5417 82.0609 43.5498 83.1089 42.9491C84.1569 42.3484 85.4005 42.1881 86.5666 42.5033L86.6201 42.5105C94.4654 43.3816 102.25 44.7318 109.93 46.5537C110.009 46.5751 110.088 46.593 110.166 46.6108C112.495 47.168 114.817 47.7704 117.131 48.4181C117.367 48.4824 117.606 48.5503 117.846 48.6217V47.8788C117.61 47.8074 117.371 47.7395 117.131 47.6752Z" fill="#F9A826"/>
<path d="M117.846 48.2502V74.481C117.606 74.4025 117.371 74.3274 117.131 74.2525C115.02 73.5774 112.902 72.9416 110.777 72.3451C108.737 71.7665 106.691 71.2224 104.637 70.7129C103.908 70.5343 103.183 70.3593 102.454 70.1878C102.426 70.0592 102.397 69.9307 102.372 69.8021C102.24 69.1877 102.137 68.5662 102.058 67.9412C102.022 67.7019 101.997 67.4626 101.972 67.2197C101.596 63.3931 102.12 59.5317 103.502 55.9435C104.884 52.3553 107.085 49.1398 109.93 46.5536C110.034 46.4536 110.141 46.3572 110.248 46.2643C112.556 46.8143 114.85 47.4096 117.131 48.0502C117.371 48.1109 117.61 48.1788 117.846 48.2502Z" fill="#F9A826"/>
<path d="M94.1249 58.9904L84.1914 57.8189C83.8419 57.7776 83.4877 57.8056 83.1491 57.9012C82.8104 57.9968 82.4939 58.1581 82.2176 58.3761C81.9414 58.594 81.7107 58.8642 81.5388 59.1712C81.367 59.4783 81.2573 59.8161 81.216 60.1656C81.1747 60.515 81.2027 60.8692 81.2983 61.2078C81.3939 61.5464 81.5553 61.8629 81.7732 62.1392C81.9911 62.4155 82.2613 62.6461 82.5684 62.818C82.8754 62.9898 83.2133 63.0995 83.5628 63.1408L93.4961 64.3123C94.201 64.3938 94.9094 64.1925 95.4659 63.7525C96.0225 63.3124 96.3818 62.6696 96.4651 61.965C96.5483 61.2604 96.3487 60.5515 95.91 59.9939C95.4713 59.4363 94.8293 59.0754 94.1249 58.9904ZM95.7608 61.8835C95.6986 62.4005 95.4339 62.8717 95.0247 63.1937C94.6156 63.5158 94.0954 63.6625 93.5783 63.6016L83.6448 62.43C83.1289 62.3672 82.659 62.1026 82.3379 61.694C82.0169 61.2855 81.8708 60.7663 81.9318 60.2503C81.9927 59.7343 82.2558 59.2634 82.6632 58.9409C83.0706 58.6184 83.5893 58.4706 84.1055 58.5297L94.039 59.7012C94.5561 59.7638 95.0274 60.0284 95.35 60.4373C95.6726 60.8462 95.8203 61.3661 95.7608 61.8836L95.7608 61.8835Z" fill="#F9A826"/>
<path d="M117.846 54.3937V66.834C117.616 66.9717 117.378 67.0935 117.131 67.1983C115.849 67.7707 114.428 67.956 113.042 67.7313C111.656 67.5067 110.366 66.882 109.33 65.9339C109.23 65.8447 109.13 65.7482 109.034 65.6482C108.937 65.5518 108.845 65.4482 108.755 65.3446C107.677 64.1062 107.054 62.5368 106.989 60.896C106.924 59.2553 107.421 57.6414 108.397 56.3215C109.374 55.0015 110.772 54.0545 112.36 53.637C113.949 53.2196 115.632 53.3567 117.131 54.0258C117.376 54.1355 117.614 54.2583 117.846 54.3937Z" fill="white"/>
<path d="M117.131 63.398C114.32 63.9838 111.528 64.6326 108.755 65.3446C107.72 65.6089 106.687 65.8827 105.659 66.1661C104.43 66.5054 103.201 66.8566 101.972 67.2198C100.404 67.6841 98.8386 68.1699 97.2752 68.677C96.8216 68.8271 96.3644 68.9771 95.9071 69.1271C91.5602 70.5772 87.2418 72.1845 82.9947 73.9382C81.6432 74.276 80.4799 75.134 79.758 76.3254C79.0362 77.5169 78.8143 78.9452 79.1407 80.2995L82.7234 95.0436C83.0549 96.4016 83.9117 97.5727 85.1056 98.2998C86.2995 99.027 87.7331 99.251 89.0919 98.9225L89.142 98.9047C96.1261 96.0401 103.274 93.5927 110.548 91.5755C112.72 90.9719 114.915 90.4028 117.131 89.8682C117.371 89.811 117.606 89.7539 117.846 89.7003V63.2516C117.606 63.2944 117.371 63.3444 117.131 63.398Z" fill="white"/>
<path d="M117.131 63.398C114.32 63.9838 111.528 64.6326 108.755 65.3446C107.72 65.6089 106.687 65.8827 105.659 66.1661C104.43 66.5054 103.201 66.8566 101.972 67.2198C100.404 67.6841 98.8386 68.1699 97.2752 68.677C96.8216 68.8271 96.3644 68.9771 95.9071 69.1271C91.5602 70.5772 87.2418 72.1845 82.9947 73.9382C81.6432 74.276 80.4799 75.134 79.758 76.3254C79.0362 77.5169 78.8143 78.9452 79.1407 80.2995L82.7234 95.0436C83.0549 96.4016 83.9117 97.5727 85.1056 98.2998C86.2995 99.027 87.7331 99.251 89.0919 98.9225L89.142 98.9047C96.1261 96.0401 103.274 93.5927 110.548 91.5755C112.72 90.9719 114.915 90.4028 117.131 89.8682C117.371 89.811 117.606 89.7539 117.846 89.7003V88.9645C117.606 89.0217 117.371 89.0788 117.131 89.136C116.953 89.1789 116.771 89.2217 116.592 89.2646C114.492 89.7753 112.414 90.3159 110.359 90.8861C110.306 90.9004 110.248 90.9183 110.195 90.9326C102.957 92.9453 95.8451 95.3843 88.8955 98.2368C87.7236 98.5115 86.4906 98.3125 85.4646 97.6832C84.4386 97.0538 83.7025 96.0449 83.4163 94.8758L79.8372 80.1316C79.5532 78.9576 79.7464 77.7188 80.3745 76.687C81.0026 75.6552 82.0142 74.9146 83.1876 74.6276L83.2412 74.6097C87.8669 72.6952 92.5745 70.9594 97.3181 69.4164C97.7752 69.2664 98.2325 69.12 98.6897 68.9735C99.8113 68.6199 100.934 68.2758 102.058 67.9413C103.244 67.5877 104.428 67.2472 105.612 66.9198C105.691 66.8983 105.769 66.8769 105.848 66.8555C107.005 66.5376 108.166 66.2304 109.33 65.934C111.913 65.2768 114.513 64.6731 117.131 64.1231C117.367 64.0731 117.606 64.0231 117.846 63.9766V63.2516C117.606 63.2944 117.371 63.3444 117.131 63.398Z" fill="#F9A826"/>
<path d="M117.846 63.6123V89.3324C117.61 89.386 117.371 89.4395 117.131 89.4967C114.895 90.0396 112.669 90.6182 110.452 91.2326C110.363 91.1326 110.277 91.0326 110.195 90.9325C107.88 88.2233 106.18 85.0453 105.21 81.6167C104.24 78.1881 104.024 74.5902 104.576 71.0701C104.594 70.9522 104.616 70.8308 104.637 70.7129C104.655 70.5986 104.676 70.4808 104.698 70.3665C104.918 69.1968 105.224 68.0449 105.612 66.9197C105.659 66.784 105.705 66.6483 105.755 66.5126C106.844 66.2125 107.937 65.9244 109.034 65.6482C111.716 64.9553 114.416 64.3255 117.131 63.7587C117.367 63.7052 117.606 63.6587 117.846 63.6123Z" fill="#F9A826"/>
<path d="M101.247 86.9107C100.979 86.2529 100.461 85.7282 99.8073 85.4516C99.1531 85.1751 98.4158 85.1693 97.7574 85.4356L88.4882 89.1931C87.8309 89.461 87.3068 89.9788 87.0309 90.6328C86.7551 91.2867 86.75 92.0235 87.0169 92.6812C87.2838 93.3389 87.8008 93.8638 88.4544 94.1406C89.1079 94.4175 89.8447 94.4237 90.5028 94.1578L99.772 90.4003C100.429 90.1319 100.954 89.614 101.23 88.9601C101.506 88.3061 101.513 87.5693 101.247 86.9107ZM99.5041 89.736L90.2349 93.497C89.752 93.6923 89.2113 93.6879 88.7315 93.4848C88.2518 93.2817 87.8723 92.8965 87.6764 92.4138C87.4805 91.9311 87.4841 91.3904 87.6866 90.9104C87.889 90.4305 88.2737 90.0504 88.7561 89.8539L98.0253 86.0964C98.5079 85.9003 99.0487 85.904 99.5287 86.1066C100.009 86.3092 100.388 86.6942 100.585 87.1768C100.781 87.6595 100.777 88.2002 100.574 88.6802C100.372 89.1601 99.9868 89.5399 99.5041 89.736Z" fill="#F9A826"/>
<path d="M117.846 70.1807V84.1855C117.61 84.2455 117.372 84.2932 117.131 84.3284C115.697 84.5294 114.236 84.2944 112.937 83.6539C111.639 83.0134 110.563 81.9971 109.849 80.7371C109.136 79.477 108.818 78.0315 108.937 76.5884C109.056 75.1454 109.606 73.7714 110.516 72.6452C110.598 72.5417 110.684 72.4417 110.777 72.3452C110.863 72.2452 110.956 72.1488 111.052 72.0559C111.842 71.2748 112.801 70.6866 113.856 70.3371C114.91 69.9877 116.031 69.8865 117.131 70.0414C117.372 70.0737 117.61 70.1202 117.846 70.1807Z" fill="white"/>
<path d="M117.131 45.8143V81.4638C117.371 81.3852 117.61 81.3102 117.846 81.2388V46.1393C117.606 46.0286 117.371 45.9214 117.131 45.8143ZM117.131 45.8143V81.4638C117.371 81.3852 117.61 81.3102 117.846 81.2388V46.1393C117.606 46.0286 117.371 45.9214 117.131 45.8143ZM117.131 45.8143V81.4638C117.371 81.3852 117.61 81.3102 117.846 81.2388V46.1393C117.606 46.0286 117.371 45.9214 117.131 45.8143ZM117.131 48.4181V89.4966C117.371 89.4395 117.61 89.3859 117.846 89.3323V48.6216C117.606 48.5502 117.367 48.4823 117.131 48.418V48.4181ZM117.131 48.4181V89.4966C117.371 89.4395 117.61 89.3859 117.846 89.3323V48.6216C117.606 48.5502 117.367 48.4823 117.131 48.418V48.4181ZM117.131 48.4181V89.4966C117.371 89.4395 117.61 89.3859 117.846 89.3323V48.6216C117.606 48.5502 117.367 48.4823 117.131 48.418V48.4181ZM117.131 48.4181V89.4966C117.371 89.4395 117.61 89.3859 117.846 89.3323V48.6216C117.606 48.5502 117.367 48.4823 117.131 48.418V48.4181ZM117.131 48.4181V89.8681C117.371 89.8109 117.606 89.7538 117.846 89.7002V48.6216C117.606 48.5502 117.367 48.4823 117.131 48.418V48.4181ZM272.956 14.6437H124.547C122.581 14.6469 120.697 15.4292 119.307 16.8191C117.917 18.2089 117.135 20.093 117.131 22.0586V132.243C117.135 134.208 117.917 136.092 119.307 137.481C120.697 138.871 122.581 139.652 124.547 139.655H272.956C274.921 139.652 276.804 138.871 278.194 137.481C279.583 136.092 280.365 134.208 280.367 132.243V22.0586C280.366 20.0932 279.584 18.2087 278.195 16.8185C276.805 15.4284 274.921 14.6463 272.956 14.6437V14.6437ZM279.653 132.243C279.651 134.019 278.945 135.721 277.689 136.977C276.434 138.232 274.731 138.938 272.956 138.94H124.547C122.771 138.939 121.068 138.233 119.812 136.977C118.555 135.722 117.848 134.019 117.846 132.243V22.0586C117.848 20.2823 118.555 18.5795 119.811 17.3235C121.067 16.0675 122.77 15.3607 124.547 15.358H272.956C274.732 15.3601 276.435 16.0668 277.69 17.3231C278.946 18.5793 279.652 20.2825 279.653 22.0586V132.243ZM117.131 48.4181V89.1359C117.371 89.0787 117.606 89.0216 117.846 88.9644V48.6216C117.606 48.5502 117.367 48.4823 117.131 48.418V48.4181ZM117.131 48.4181V89.4966C117.371 89.4395 117.61 89.3859 117.846 89.3323V48.6216C117.606 48.5502 117.367 48.4823 117.131 48.418V48.4181ZM117.131 48.4181V89.4966C117.371 89.4395 117.61 89.3859 117.846 89.3323V48.6216C117.606 48.5502 117.367 48.4823 117.131 48.418V48.4181ZM117.131 48.4181V89.4966C117.371 89.4395 117.61 89.3859 117.846 89.3323V48.6216C117.606 48.5502 117.367 48.4823 117.131 48.418V48.4181ZM117.131 45.8143V81.4638C117.371 81.3852 117.61 81.3102 117.846 81.2388V46.1393C117.606 46.0286 117.371 45.9214 117.131 45.8143ZM117.131 45.8143V81.4638C117.371 81.3852 117.61 81.3102 117.846 81.2388V46.1393C117.606 46.0286 117.371 45.9214 117.131 45.8143Z" fill="#2F2E41"/>
<path d="M85.315 83.5336C85.175 83.2071 84.9651 82.9153 84.7001 82.6787C84.4351 82.4421 84.1215 82.2665 83.7813 82.1643C83.4411 82.062 83.0826 82.0356 82.731 82.0868C82.3795 82.1381 82.0435 82.2658 81.7466 82.461L74.899 77.1997L74.5754 81.6753L81.1277 85.9853C81.4886 86.4623 82.012 86.7902 82.5985 86.9071C83.1851 87.0239 83.7942 86.9215 84.3104 86.6193C84.8265 86.3171 85.2139 85.8361 85.3991 85.2674C85.5842 84.6987 85.5543 84.0818 85.315 83.5337V83.5336Z" fill="#FFB6B6"/>
<path d="M57.7216 51.7818L55.4684 50.7169C55.4684 50.7169 51.8384 51.7379 53.602 56.5378L64.2745 76.4194L77.3044 84.0477L81.3664 80.4483L68.3272 70.1316L57.7216 51.7818Z" fill="#3F3D56"/>
</g>
<defs>
<clipPath id="clip0_35334_4148">
<rect width="336" height="155" fill="white"/>
</clipPath>
</defs>
</svg>
